<?xml version="1.0" standalone="no"?>
<!DOCTYPE svg PUBLIC "-//W3C//DTD SVG 1.1//EN" "http://www.w3.org/Graphics/SVG/1.1/DTD/svg11.dtd" >
<svg>
<metadata>
Created by FontForge 20110222 at Mon Mar  7 08:23:11 2011
 By www-data
Copyright 1999 DATA BECKER GmbH &#38; Co. KG. All Rights Reserved
</metadata>
<defs>
<font id="tintin" horiz-adv-x="2096" >
  <font-face 
    font-family="tintin"
    font-weight="400"
    font-stretch="normal"
    units-per-em="4096"
    panose-1="0 0 4 0 0 0 0 0 0 0"
    ascent="2307"
    descent="-1789"
    x-height="1328"
    cap-height="2395"
    bbox="-254 -1103.61 3460.19 3106.56"
    underline-thickness="160"
    underline-position="-320"
    unicode-range="U+0020-2122"
  />
    <missing-glyph />
    <glyph glyph-name="space" unicode=" " horiz-adv-x="1189" 
 />
    <glyph glyph-name="exclam" unicode="!" horiz-adv-x="1418" 
d="M1113 2346l7 -44l-7 -114q-77 -136 -93 -292q-88 -196 -123 -406q-83 -123 -87 -272q-57 -112 -72 -237l-24 -28l-72 -37q-96 -5 -128 75v110q53 98 55 206l14 15l25 168l51 96q20 208 130 389l42 190q6 192 162 244l96 -25l24 -38v0zM383 252q114 -33 121 -156v-23
l-24 -32l-72 -31q-101 -11 -138 76l-3 58q5 62 65 93h35l16 15v0z" />
    <glyph glyph-name="quotedbl" unicode="&#x22;" horiz-adv-x="1444" 
d="M844 2315q25 -123 -62 -209l-11 -44l-62 -62q-45 -203 -223 -307l-92 4l-40 33l-11 29q-16 132 91 216l191 340l87 80l99 -29l33 -51v0zM1345 2234q5 -132 -95 -216l-7 -29l-41 -33q-66 -173 -223 -263h-102l-44 37l-11 29q-10 197 154 325q57 176 223 256l87 -22l59 -84
v0z" />
    <glyph glyph-name="numbersign" unicode="#" horiz-adv-x="3084" 
d="M1490 2430q85 4 114 -72q22 -104 -41 -178l-21 -106q-67 -92 -93 -203l-37 -47l-27 -90q106 -23 209 14q170 -37 346 -14l41 123l31 35q17 94 76 172l40 143l31 41q14 113 124 148h27l82 -61l4 -97q-60 -115 -79 -244q-62 -69 -76 -160l-37 -49l-7 -48l562 -10
q90 -10 113 -93l-24 -92l-79 -41q-277 -43 -548 13l-133 -20q-41 -167 -131 -312l-10 -76l654 -3l45 -13l61 -56l8 -44l-18 -62l-85 -51q-108 11 -213 -14q-148 -21 -288 20l-171 -6l-34 17h-39q-114 -161 -133 -367q-70 -112 -96 -244l-41 -58q-18 -171 -161 -250h-68
q-84 56 -56 161q32 129 117 234l3 31q79 107 89 240l21 20q46 103 52 216l-151 6l-377 -10l-28 -10q-27 -137 -92 -261l-11 -61q-63 -84 -75 -189q-71 -89 -90 -202q-50 -157 -195 -138l-55 66l4 110q160 225 205 490q56 73 62 164l-10 14l-295 -6l-34 13q-170 -42 -305 51
l-24 62l34 79l103 41q305 -47 610 -14q72 111 86 244l54 86l15 71l-549 -2l-107 16l-64 42q-57 81 20 147l93 35q356 -56 712 0l15 13q10 131 92 230q13 100 75 181l25 100l23 28q19 120 130 157v0zM1600 1511q-153 -37 -312 -17q-53 -74 -65 -168q-66 -99 -89 -216l21 -10
q94 25 192 3l89 18q130 -27 264 -8q33 204 150 378l-33 13l-217 7v0z" />
    <glyph glyph-name="dollar" unicode="$" horiz-adv-x="2263" 
d="M1683 2843l17 -63q-4 -202 -105 -379l95 -20l152 -95l10 -24q105 -63 152 -182l7 -67l-4 -98l-20 -34l-84 -27q-144 74 -217 222l-128 75l-44 7l-13 -17l-41 -159l-17 -17q-69 -171 -97 -355q-114 -153 -122 -335l43 -94q-2 -123 54 -233l7 -122v-240q-54 -106 -61 -223
q-68 -72 -94 -169q-127 -199 -369 -192q-35 -60 -37 -129l-81 -142l-68 -30q-95 -12 -125 91v101l48 132q-256 64 -372 298l-30 87v27l34 75l64 27h44l88 -64q74 -149 229 -193l30 6q9 89 61 163l27 118l34 54q6 99 64 179v48q58 106 69 227q77 91 70 212q-66 82 -81 186
l-27 30l-27 143l-14 16l-3 115l17 28l24 135q53 60 70 138q140 198 352 301l84 17l34 80q-35 164 72 271l30 64l81 55l97 -4l21 -21v0zM1230 2053q-147 -115 -179 -294l7 -115l23 44l10 58l28 20l20 54l27 26l74 197l-10 10v0zM1071 812q-79 -123 -98 -270
q-65 -104 -74 -226l7 -7l61 38l20 49l37 41l37 126l17 20l17 111l-10 112l-14 6v0z" />
    <glyph glyph-name="percent" unicode="%" horiz-adv-x="2536" 
d="M569 2404q195 -1 285 -172l16 -91q-1 -242 -172 -413l-193 -160l-160 -56q-137 -15 -207 107l-30 125q-27 192 91 346l206 224l164 90v0zM578 2236q-212 -103 -298 -328l-17 -89l17 -122l39 -34l103 21q221 135 289 380l-26 125l-42 34l-65 13v0zM2242 2323l-5 -117
q-63 -173 -207 -280q-57 -112 -159 -182q-70 -145 -195 -250q-62 -139 -185 -232q-57 -135 -180 -215q-69 -145 -194 -247q-65 -148 -185 -253q-63 -170 -208 -277l-78 -125l-176 -133l-116 13l-65 94q-7 190 159 302l73 121l70 52q68 169 211 276q61 127 172 215l39 69
q154 101 237 263q98 70 151 181q123 102 189 246l135 160q60 239 279 361l70 22l133 -26l35 -38v0zM2113 1034q193 -4 284 -177l17 -91q6 -212 -133 -366q-150 -204 -392 -263q-141 -17 -208 112l-29 121v146q112 361 461 518v0zM2121 862q-211 -97 -297 -325l-18 -90
l18 -125l39 -34q149 3 245 142l73 82l74 181l-26 120l-43 36l-65 13v0z" />
    <glyph glyph-name="ampersand" unicode="&#x26;" horiz-adv-x="2290" 
d="M1299 2401q271 18 486 -156q258 -181 209 -483l-30 -141q-60 -53 -84 -129l-110 -129l-76 -23q-176 -187 -438 -160l-3 -23q53 -131 159 -228l20 -61l26 -31l38 19l129 199l92 83q152 61 292 7l-15 -163l-34 -118l-30 -30l-4 -34q-92 -91 -137 -213l-72 -62v-18
q55 -121 160 -198l22 -50q140 -18 164 -163l-8 -72l15 -23l-18 -53l-85 -27l-140 23l-110 80l-50 14q-131 117 -205 278q-247 -235 -578 -266q-188 -100 -358 8l-95 26q-35 65 -99 103l-18 49q-146 152 -172 362q-49 352 183 609q137 142 315 232q-72 272 30 521
q57 84 145 126q115 184 308 280l176 35v0zM1344 2086q-315 -75 -426 -385q11 -121 103 -205l95 -30q279 -43 456 193q78 80 103 190l-8 92q-124 150 -323 145v0zM477 743q-38 -224 122 -358l140 -27q145 54 296 61q104 41 168 133l38 19q-47 118 -148 190l-106 187l-53 34
l-66 114l-42 35q-254 -127 -349 -388v0z" />
    <glyph glyph-name="quotesingle" unicode="'" horiz-adv-x="924" 
d="M782 2395q70 4 102 -66q17 -192 -102 -336l-41 -92q-83 -74 -131 -175l-44 -40l-55 -15q-93 -6 -132 84l18 121l33 29l8 29q82 77 106 183l55 84q15 130 131 187l52 7v0z" />
    <glyph glyph-name="parenleft" unicode="(" horiz-adv-x="1673" 
d="M1406 2340l30 -68l-39 -104l-271 -217q-94 -87 -122 -206l-78 -91l-25 -65l-74 -82q-15 -115 -90 -203q-9 -151 -100 -273q-17 -147 -100 -271l13 -381q77 -137 100 -294q55 -129 156 -224l26 -65l65 -43l99 -130l-21 -125l-91 -39q-179 22 -272 185q-56 136 -164 230
q-23 108 -96 190l-31 143l-37 65l-44 224q-12 238 81 454q11 162 122 284q8 140 99 256l21 99l39 60l13 57q210 481 662 678l90 -5l39 -39v0z" />
    <glyph glyph-name="parenright" unicode=")" horiz-adv-x="1594" 
d="M1074 2387q96 3 144 -94q47 -131 49 -268q75 -161 83 -337q19 -174 -25 -341v-206l-13 -20q58 -393 -164 -725l-34 -102l-57 -79l-37 -127q-98 -121 -156 -264l-132 -123l-57 -115l-95 -124l-70 -37l-140 17l-58 57l-24 66l41 119l157 153q51 131 168 222q25 84 95 140
l25 65q90 89 99 222q85 116 90 260l54 102q-15 95 20 181q-19 186 37 363q-32 114 0 234q-10 198 -82 379q-85 182 8 341l74 41v0z" />
    <glyph glyph-name="asterisk" unicode="*" horiz-adv-x="2342" 
d="M626 2368q70 -65 163 -88l61 -75l48 -27l20 -41q95 16 143 109l98 44q62 105 173 92l38 -18q46 -78 132 -121l-3 -102l-20 -41l23 -37h27q107 116 255 105l81 20q76 -34 157 -27q130 -18 136 -146l-7 -102q-78 -234 -326 -135l-160 -133l48 -74q135 -44 160 -178l2 -54
l-64 -78q-11 -129 -119 -197q-166 -20 -268 132h-98l-35 -41q62 -196 -88 -315q-74 -57 -169 -68l-112 17q-172 155 -133 377l-13 47l-157 34q-98 -63 -220 -30l-45 -34l-30 -3l-54 43l-18 49q-80 13 -95 104v55l48 50l30 8l25 23l108 20q62 57 153 25l71 20l92 64l3 38
l20 30l-10 24q-142 -17 -200 125l-17 109l-81 69l-8 30l-33 44l-18 109l18 24q0 106 115 146l153 -21v0z" />
    <glyph glyph-name="plus" unicode="+" horiz-adv-x="1682" 
d="M806 1863q134 17 179 -120q9 -135 -32 -263l32 -203q200 -15 399 20l123 -60l36 -87q-7 -124 -123 -156l-45 -12q-126 28 -251 -12l-155 20q-30 -191 12 -383l-59 -123l-89 -36q-123 7 -154 123l-12 45q28 126 -12 251l7 123l-226 -24q-189 -30 -296 112l-12 44
q-17 135 120 178q135 9 263 -31l156 16q22 144 -17 287q-24 177 112 279l44 12v0z" />
    <glyph glyph-name="comma" unicode="," horiz-adv-x="1136" 
d="M613 235q147 14 193 -124q5 -284 -197 -494l-120 -69l-84 4l-88 73l15 102q85 49 131 139l7 256l88 98l55 15v0z" />
    <glyph glyph-name="hyphen" unicode="-" horiz-adv-x="1647" 
d="M277 851q237 -37 475 -4q284 -37 567 0l113 -51l33 -77q-12 -133 -154 -153q-124 25 -248 -7q-149 35 -296 3q-161 24 -318 -7l-176 18l-91 73l-15 44v55l29 62l81 44v0z" />
    <glyph glyph-name="hyphen" unicode="&#x2010;" horiz-adv-x="1647" 
d="M277 851q237 -37 475 -4q284 -37 567 0l113 -51l33 -77q-12 -133 -154 -153q-124 25 -248 -7q-149 35 -296 3q-161 24 -318 -7l-176 18l-91 73l-15 44v55l29 62l81 44v0z" />
    <glyph glyph-name="period" unicode="." horiz-adv-x="1215" 
d="M537 336q113 24 178 -73l15 -33q57 -184 -95 -234l-113 11l-47 47l-26 74l15 102l73 106v0z" />
    <glyph glyph-name="slash" unicode="/" 
d="M1934 2130l-5 -103q-114 -252 -331 -427l-103 -158l-39 -28q-100 -174 -249 -312l-24 -55q-141 -102 -217 -260q-115 -82 -166 -222q-102 -84 -147 -213q-115 -87 -177 -218l-162 -122h-79l-47 24l-36 74q-11 173 143 277l62 107l67 52q56 141 174 229q72 134 186 233
l28 55q137 92 217 237q199 180 325 415l110 123l59 153l51 72l52 23l74 72l84 31l122 -24l28 -35v0z" />
    <glyph glyph-name="zero" unicode="0" horiz-adv-x="2017" 
d="M1193 2178q302 11 526 -201q77 -59 110 -151l46 -49l60 -243l-27 -276l-15 -19l-23 -125l-22 -23q-21 -122 -103 -219l-11 -49l-163 -209q-89 -157 -241 -234l-31 -49q-148 -52 -242 -170q-79 -20 -137 -80l-302 -76q-200 -14 -344 117q-32 77 -98 122q-157 270 -103 590
l7 106q62 106 84 228l106 197l37 33q91 187 265 315l35 52q244 282 586 413v0zM1231 1780q-177 -33 -272 -193l-46 -34l-30 -60l-42 -23q-63 -113 -178 -182q-184 -240 -223 -537v-102q-6 -219 174 -291q174 15 311 124l298 269l31 60l53 39q196 209 241 506v114
q-12 241 -218 277l-57 33h-42v0z" />
    <glyph glyph-name="one" unicode="1" horiz-adv-x="1382" 
d="M1239 2188l37 -38l33 -74q15 -211 -175 -346q-23 -81 -85 -141q-59 -185 -163 -346q-10 -114 -82 -204l-44 -134q-63 -67 -79 -159l-40 -53q-15 -99 -83 -174q-34 -150 -122 -276q-28 -120 -97 -219l-78 -23l-111 16l-78 92q-28 120 56 205l18 70l59 74l22 97l61 67
l25 119l60 82q16 102 81 182l23 112l59 100l22 105l63 108l4 96l-44 48l-71 11l-74 70l-18 105l81 93q83 9 145 63q186 52 316 205q71 61 160 74l119 -7v0z" />
    <glyph glyph-name="two" unicode="2" horiz-adv-x="1902" 
d="M1116 2226q366 76 607 -183q21 -89 78 -156l7 -48q36 -169 -51 -302l-31 -126q-136 -255 -390 -383l-47 -48l-52 -20q-86 -89 -196 -146l-51 -57l-65 -25q-112 -129 -260 -213l-103 -115l21 -72q157 -61 326 -47l14 -10q271 57 501 -64q69 -72 10 -170l-16 -17
q-76 -25 -156 -21l-312 7l-14 10l-136 8l-44 19l-183 -27h-140l-40 21q-187 -21 -315 102l-21 33l10 82q172 303 462 499l47 54l54 27q100 125 244 193q62 71 150 103q75 92 180 145l23 34l65 41l17 34l47 30q37 88 113 149l2 31q111 147 14 302q-143 131 -318 57l-82 -33
l-51 -48l-139 -71q-135 -21 -187 92q-32 147 106 230q73 22 128 78l174 21v0z" />
    <glyph glyph-name="three" unicode="3" horiz-adv-x="2043" 
d="M1082 2109q240 29 453 -67l64 8q133 89 287 37l75 -79q10 -90 -68 -130l-108 -11q-67 -87 -168 -131l-45 -45l-22 -49l-105 -78l-86 -135l8 -44q81 -153 205 -277l45 -178l15 -16l7 -253l-89 -240l-37 -33q-47 -144 -176 -228q-196 -133 -434 -149q-263 -29 -470 126
l-79 30l-63 53l-79 30l-89 82l-15 85q-22 131 101 158l109 11q172 -49 291 -187q210 -145 441 7q197 141 197 374l-30 141l-93 139q-205 70 -415 -37q-158 -47 -220 81q-30 149 56 255q117 22 216 89q206 38 344 198l30 64v33l-63 30h-442q-113 6 -122 116l15 108
q249 174 559 112v0z" />
    <glyph glyph-name="four" unicode="4" horiz-adv-x="1964" 
d="M1450 2113l35 -66l-19 -70l-117 -117l-19 -44q-134 -104 -212 -252l-44 -38q-47 -109 -142 -186q-59 -153 -189 -260q-58 -120 -155 -208v-32l44 -34l293 6l17 9q159 -35 214 105l15 76l26 28q38 180 174 300q82 39 161 -22l28 -50l-3 -64l-126 -224l-6 -44
q62 -134 243 -66l123 75l19 -6l10 -38l-4 -48l-110 -158q-16 -76 -105 -72l-13 -13q-259 65 -375 -132l-25 -82l-45 -57l-19 -89q-57 -69 -69 -157l-44 -51l-48 -25q-140 -39 -166 82q-16 171 91 315q54 47 44 121l-22 38l-41 15h-105l-15 -12l-449 -16q-143 -4 -179 126v60
q152 265 395 462q23 63 82 104l6 28l28 22q29 74 92 123q116 237 328 395q85 178 253 275h75l70 -32v0z" />
    <glyph glyph-name="five" unicode="5" horiz-adv-x="1955" 
d="M1827 2210l64 -49l29 -74l-9 -58l-74 -60q-226 20 -424 -81q-130 10 -202 -96l-73 -122l-33 -25l-45 -87l-60 -49l-58 -74l-7 -70l9 -16q213 -55 318 -234q191 -330 -6 -655l-106 -157l-93 -97l-26 -6l-96 -71q-76 -17 -138 -67l-129 -23l-12 -12l-100 -23
q-148 5 -270 97l-25 28l-26 7l-128 147l-29 87q-17 116 96 135q168 23 257 -135l68 -48h83l208 93q248 136 247 411q-10 170 -167 218h-111q-62 -48 -136 -54q-123 -128 -282 -75q-72 49 -71 132l49 103q80 96 170 183l22 3q76 63 106 157q118 121 202 267q169 145 245 366
l67 39q205 -24 398 51l298 -6v0z" />
    <glyph glyph-name="six" unicode="6" horiz-adv-x="1823" 
d="M1369 2167q177 22 297 -112l22 -77q18 -137 -115 -180q-316 51 -532 -204l-37 -55l-49 -34l-70 -105l7 -25l27 -18l130 -4l119 -38l23 -22q214 -47 270 -249q96 -114 56 -272q-117 -398 -472 -620l-100 -52l-26 -31q-148 -57 -309 -59q-214 11 -357 182l-100 153l-37 193
q-33 261 92 484l27 119q139 276 371 479q194 316 540 473l223 74v0zM881 988q-118 -15 -203 -92q-178 -48 -213 -231q-54 -201 127 -291l77 -15l112 20q237 119 335 367l-4 85q-75 150 -231 157v0z" />
    <glyph glyph-name="seven" unicode="7" horiz-adv-x="1876" 
d="M743 2178q228 7 447 -51q98 11 187 -36q148 -20 295 9q104 -17 119 -122l-6 -46l10 -16l-29 -84q-222 -110 -340 -330l-19 -52l-53 -55l-25 -61q-77 -61 -114 -149l-57 -55l-23 -46q-94 -69 -140 -181q-131 -128 -217 -288l-45 -45q-45 -166 -159 -289q-6 -153 -119 -249
q-55 -30 -116 -26l-98 19l-55 78q-7 168 104 304l49 52q40 133 141 230q39 126 147 214q22 65 77 106l19 49l127 133q22 66 77 110l20 52q95 68 139 181l26 19l101 159v61l-49 49q-207 96 -415 23l-103 -94l-17 -29l-45 -29l-16 -32l-55 -33l-42 -51l-32 -8
q-44 -49 -114 -31l-71 48l-39 77l26 91l55 49l16 32q97 46 149 146q78 48 123 129q71 56 159 68v0z" />
    <glyph glyph-name="eight" unicode="8" horiz-adv-x="1920" 
d="M1136 2201q255 15 450 -146l158 -171l27 -123q38 -287 -177 -489l-182 -157q-70 -126 35 -255q32 -376 -279 -614q-212 -215 -524 -241l-153 11q-68 47 -150 59l-31 46l-49 34q-27 76 -88 129q-78 122 -97 262q-45 327 171 562q125 129 285 210q-66 249 29 478
q55 76 136 118q102 168 279 255l160 32v0zM1178 1911q-208 -48 -331 -219q-11 -77 -60 -133q9 -113 95 -189l87 -28q251 -38 412 171q77 76 101 181l-7 84l-69 70l-99 32l-17 17l-112 14v0zM724 1049q-210 -110 -323 -318l-19 -52q-33 -205 112 -328l129 -25
q316 -19 462 258l51 179l-3 112l-90 114l-150 60l-116 7l-53 -7v0z" />
    <glyph glyph-name="nine" unicode="9" horiz-adv-x="1928" 
d="M1350 2121q71 -53 160 -66q282 -127 273 -456l-16 -287q-9 -107 -69 -192l-37 -148l-36 -50l-17 -52q-78 -77 -102 -182l-26 -26l-24 -83q-74 -56 -108 -145q-248 -356 -651 -433q-236 -24 -419 110q-99 21 -172 95l-26 79q-9 82 26 158q96 83 221 40l106 -40l16 -19
q220 -122 413 10q67 35 103 99q110 51 141 168l27 27l-13 26l-63 27q-174 -30 -317 59q-53 95 -145 146l-76 98l-24 132l-12 14v88l12 17l40 188q60 66 72 156l44 46q47 156 191 248q117 94 264 118l83 40l161 -10v0zM1202 1768q-202 -39 -264 -215l-56 -76q-7 -66 -49 -115
l-7 -46q19 -151 158 -206q181 -20 320 100l46 62q10 143 94 251q21 141 -90 222q-71 34 -152 23v0z" />
    <glyph glyph-name="colon" unicode=":" horiz-adv-x="1153" 
d="M741 1060l33 -40l-4 -85l-65 -69q-118 -13 -154 91v63l48 43l76 26l66 -29v0zM456 222l37 -80l-30 -103l-84 -29l-87 29l-37 70v47l26 62l76 30l99 -26v0z" />
    <glyph glyph-name="semicolon" unicode=";" horiz-adv-x="1453" 
d="M946 986l-4 -85l-65 -69q-122 -13 -154 91l7 73l51 41l66 18l66 -29l33 -40v0zM507 207q151 11 194 -132q3 -284 -197 -494l-121 -69l-84 4l-88 76l15 99q80 55 131 139l8 260l87 98l55 19v0z" />
    <glyph glyph-name="less" unicode="&#x3c;" horiz-adv-x="1964" 
d="M1660 1836l55 -59q25 -136 -95 -208l-69 -15q-134 -106 -304 -132l-66 -47l-120 -37l-161 -84l-22 -25q-164 -6 -176 -136l85 -62l58 -11l22 -22l99 -26l22 -18l303 -73l391 -128l73 -37l59 -73q12 -90 -69 -135l-63 -11q-165 8 -314 77l-179 29q-148 88 -329 88l-22 18
l-70 15l-47 33l-81 14l-29 22q-146 12 -256 103q-109 9 -194 76l-29 70l26 132q91 113 226 131q65 54 147 73l40 48q107 54 226 70l194 113l73 15q235 84 447 215l65 4l84 -7v0z" />
    <glyph glyph-name="equal" unicode="=" horiz-adv-x="2113" 
d="M774 1563q101 13 193 -22q307 37 615 0q204 77 358 -47l18 -66q-12 -135 -157 -154q-125 27 -249 -11q-135 48 -270 0q-124 33 -249 -7q-306 49 -610 -4l-176 22l-91 73l-15 44q-17 124 110 165l267 -26l230 18l26 15v0zM938 949l48 -19h120l11 11q126 27 249 -7
q231 -16 461 18l113 -51l33 -80q-10 -135 -154 -158q-124 26 -248 -7q-139 40 -274 0q-125 25 -249 -7q-305 42 -607 -4l-179 18l-95 81l-11 40q-14 124 113 165q194 -60 384 -8h110l25 15l150 -7v0z" />
    <glyph glyph-name="greater" unicode="&#x3e;" horiz-adv-x="1946" 
d="M254 1862q166 -7 315 -77l179 -29q147 -88 328 -88l29 -22l63 -10l47 -33q205 -23 365 -139l88 -18l88 -41l47 -84l-26 -131q-88 -109 -219 -128q-98 -82 -222 -106l-44 -44l-66 -18l-124 -80l-8 -19l-171 -65q-116 -117 -281 -165q-102 -103 -245 -135l-124 18l-44 37
l-18 117q68 134 222 146l103 51l62 62q76 22 128 84q106 30 193 99l51 11q97 93 223 128l29 36l11 48l-76 58l-66 15l-22 22l-99 25l-22 18l-401 103q-115 84 -267 87l-99 48l-58 73q-14 92 69 135l62 11v0z" />
    <glyph glyph-name="question" unicode="?" horiz-adv-x="1999" 
d="M1271 2406q302 14 505 -210q97 -106 118 -254l-8 -194q-51 -76 -58 -168q-100 -230 -328 -315l-54 -43q-286 -91 -585 -117l-35 -31q-29 -118 -112 -211l-79 -230l-74 -50q-91 -15 -156 50l-11 35v94q65 143 85 300q20 227 183 358q231 85 484 36l148 35l171 85
q136 160 117 363q-50 133 -195 182l-260 -3l-24 -20l-183 -46l-230 -148l-98 23l-58 78q22 212 237 281q231 135 500 120v0zM441 263l35 -31l23 -82l15 -12q10 -110 -81 -140q-165 -35 -195 121l31 105l70 43l102 -4v0z" />
    <glyph glyph-name="at" unicode="@" horiz-adv-x="2448" 
d="M1547 2387q292 15 493 -201q241 -226 230 -555q44 -251 -62 -471l-48 -190l-25 -29q-14 -98 -77 -176q-22 -137 -168 -160q-243 -44 -449 91q-80 17 -135 -40q-253 -160 -515 0q-164 129 -208 325q-1 224 182 350q152 95 336 66q126 -17 219 -95l77 -18l18 -18l92 -22
l44 55q10 74 54 135l8 80l-15 59q-151 125 -354 87q-113 43 -114 150l41 73l80 37l248 21l19 -14q249 29 354 -176q72 -184 -15 -365q14 -96 -44 -164l-62 -216l22 -109l48 -55q23 81 87 139l55 124q-15 150 51 281v212l-14 73l-15 15l-22 186l-25 66l-37 29
q-64 142 -234 157h-182l-212 -33q-63 -58 -146 -69q-112 -41 -183 -132l-29 -7l-164 -164q-197 -200 -252 -461l-62 -135q-67 -284 32 -555q201 -291 541 -376l124 -22l238 7l463 95l73 40l70 77l33 15l54 62l81 58l69 4l44 -33l-4 -58l-95 -114l-299 -197
q-383 -104 -778 -113q-260 22 -471 168l-62 22q-86 90 -197 142l-117 146q-8 105 -62 198l-15 146v146l37 241q83 113 116 252q60 63 73 146q124 257 344 435q115 178 325 204l84 33l22 22q185 73 387 73v0zM926 1006l44 -69l47 -33h66l106 73v26l-51 33l-121 25l-91 -55v0z
" />
    <glyph glyph-name="A" unicode="A" horiz-adv-x="2369" 
d="M1919 2342q-27 -220 17 -436q-49 -268 0 -532q-30 -230 10 -456q-77 -366 38 -723q44 -162 -86 -245l-77 17l-51 52l-14 90l-14 14l-7 117q-48 98 -52 208l-69 48l-276 -11l-17 -10l-661 -13l-93 -80l-18 -39q-135 -114 -203 -286q-103 -78 -214 -14l-25 49
q-10 176 145 272q53 88 132 153q72 170 217 293q39 119 136 201q52 132 162 225l45 96l28 25q94 196 238 359q46 125 152 208l28 61q71 48 107 125q90 70 128 176q74 78 176 111l79 -10l39 -45v0zM1514 1751q-105 -98 -149 -228q-172 -175 -272 -402q-118 -112 -174 -266
l-31 -27l-21 -66l18 -38l145 4l14 -11h104l17 11q242 -39 477 27l45 63v207l10 14q-34 204 -10 411l10 14q20 212 -35 415l-17 6l-131 -134v0z" />
    <glyph glyph-name="B" unicode="B" horiz-adv-x="2184" 
d="M1343 2414q265 32 421 -180q68 -73 95 -169q32 -226 -99 -414l-54 -58l-51 -102l3 -27l21 -16q18 -86 81 -150q95 -224 62 -472l-68 -236l-37 -41q-25 -89 -96 -150l-17 -43q-96 -70 -166 -167q-112 -24 -203 -92q-178 -83 -374 -61l-71 -17q-174 -23 -333 44l-152 18
l-68 37l-30 82l14 108l64 115l10 54q74 99 92 224l17 18l23 152l34 98l17 17q8 134 78 248l41 179l34 55q-6 159 74 288l38 156l37 48l20 105l34 98l21 21l37 138l95 68l356 24v0zM1265 2116q-164 34 -241 -96q-8 -81 -54 -148q-10 -113 -61 -215l6 -57l75 -51
q205 -10 390 68l14 20l54 28q28 59 85 95l78 162l-10 88l-75 88q-119 48 -248 27l-13 -9v0zM841 1267q-127 -122 -136 -301l-51 -99l-23 -146q-74 -120 -75 -267l-13 -14q-10 -103 84 -119h191l13 -13l27 13q241 -24 444 105q210 178 255 449q44 185 -78 318
q-180 120 -407 82l-231 -8v0z" />
    <glyph glyph-name="C" unicode="C" horiz-adv-x="2122" 
d="M1393 2402q107 11 202 -38q223 -6 329 -202l35 -79l26 -20l25 -89q19 -100 -70 -115h-51l-96 73l-13 29l-153 166q-348 79 -633 -147q-65 -80 -160 -127q-49 -93 -141 -151q-252 -327 -306 -735q-24 -255 89 -483q45 -78 118 -128q43 -92 144 -114q236 -52 460 25l166 99
l167 67l38 -7l45 -70l-19 -86q-77 -88 -189 -128l-48 -45q-66 -8 -118 -48l-282 -51h-130l-183 49l-44 35l-51 15l-195 141q-211 243 -182 553l-10 13q-9 206 80 390l22 144q110 142 141 326q48 93 121 166l17 51q89 138 230 217q128 217 393 272l226 32v0z" />
    <glyph glyph-name="D" unicode="D" horiz-adv-x="2466" 
d="M1436 2410q218 23 380 -110l168 -182l2 -32q118 -138 146 -313l-10 -398l-22 -96l-17 -18l-50 -228q-58 -75 -71 -174q-115 -142 -174 -312q-103 -105 -174 -235q-197 -236 -498 -270l-14 -14l-149 -8l-15 -10q-155 36 -305 -7l-299 25l-15 14q-106 6 -127 124l14 160
l39 61q10 97 74 171q16 119 79 223l25 132l53 96q3 143 82 263q5 105 57 195l46 185q193 269 252 605q52 121 174 146l295 -11l54 18v0zM1123 2057q-26 -87 -85 -155l-29 -86l-14 -7q-24 -114 -96 -199q-32 -279 -182 -506q5 -90 -41 -170q-7 -169 -93 -316l-47 -206l11 -97
l47 -42l71 -10q125 43 259 24q107 60 231 57q217 76 349 285q122 146 181 327l32 42q16 128 85 235l42 245l15 18l-15 21v99l15 15v39l-15 17q2 175 -124 299q-104 131 -259 150l-292 -47l-46 -32v0z" />
    <glyph glyph-name="E" unicode="E" horiz-adv-x="2545" 
d="M2244 2349l18 -66l-18 -88l-51 -44q-397 -96 -800 -40q-171 -20 -212 -201l-22 -73q-85 -75 -81 -201q-64 -81 -18 -168l33 -14l164 -8l15 -14h142l15 14q140 19 281 0l73 -66l19 -87q-63 -156 -249 -132l-14 -14h-88l-18 14q-131 14 -263 8l-15 11q-154 29 -263 -77
q-46 -58 -51 -132q-71 -120 -84 -259q-104 -156 -91 -336l29 -44q205 -63 420 -25l15 14h29l14 -14l366 14q94 -48 91 -153q-20 -125 -153 -125l-402 -7l-19 -14q-208 -35 -420 -26l-237 7l-84 48l-33 51q-13 176 91 325l22 102l59 99l7 66l55 164l18 18l106 369l18 19
q27 141 99 263l40 208l40 51l44 161q69 81 84 190q79 87 95 208l80 51q235 -59 464 -7l172 -11l15 11l223 7l18 11l164 -15l48 -43v0z" />
    <glyph glyph-name="F" unicode="F" horiz-adv-x="2448" 
d="M2137 2383l33 -81l-29 -98q-142 -94 -314 -77l-15 -15q-118 18 -230 -18l-197 -7l-15 -15q-175 21 -277 -120q-113 -145 -125 -322l-51 -146v-106l51 -29q242 -53 475 36q109 27 172 -58l3 -88q-96 -172 -314 -139q-225 -89 -467 -51q-120 -63 -128 -212
q-104 -198 -139 -420q-82 -148 -98 -318q-43 -63 -114 -91l-102 18l-62 88q-13 229 131 416l8 66l73 143l7 58q70 99 77 223q86 121 98 274q138 243 161 530l33 51q6 136 84 241q24 182 197 223q234 -37 461 51l365 -11l73 29l58 4h40l77 -29v0z" />
    <glyph glyph-name="G" unicode="G" horiz-adv-x="2325" 
d="M1863 2335l71 -48l34 -45q25 -159 -123 -189h-138q-173 86 -353 25q-441 -232 -688 -661l-41 -100l-40 -45q-16 -112 -79 -200q-62 -231 0 -458q82 -182 265 -264l41 -11l304 4q73 61 164 81q282 194 420 506l-30 74l-59 15l-183 -41q-217 -58 -319 123q-24 131 89 178
l145 7l18 16q137 30 276 26l18 14q150 33 290 -18l82 -56l22 -70q7 -169 -74 -317l-22 -122q-73 -76 -93 -175l-30 -22q-53 -106 -149 -174l-26 -49q-123 -62 -208 -175q-231 -155 -520 -145q-261 -30 -453 156q-167 125 -246 312q22 191 -37 369q-13 112 37 216l30 189
l18 18l18 70q114 270 317 477l59 97q119 80 205 196q161 73 286 205l82 44l208 34h67l345 -67v0z" />
    <glyph glyph-name="H" unicode="H" horiz-adv-x="2912" 
d="M1253 2342q80 -117 12 -243l-45 -50q-21 -107 -87 -198q-15 -232 -140 -433q-56 -103 -53 -215l36 -33h124l17 17q166 68 342 53q275 68 557 46l55 17q108 155 143 346l46 70l111 425l79 161q106 137 260 41l28 -28l17 -54l-20 -145q-83 -124 -104 -272
q-84 -102 -95 -235q-83 -108 -91 -247q-145 -245 -185 -529q-72 -103 -87 -230l-41 -67q-24 -160 -91 -309q16 -181 -144 -260q-111 -22 -170 70l-16 66l29 243l17 17l24 128l25 25q17 123 86 222q34 100 17 202l-41 21q-364 22 -706 -99h-111q-120 -67 -265 -62l-107 -165
l-28 -149q-91 -121 -104 -272q-71 -251 -301 -227l-49 50l-25 74q8 148 95 268l54 194l58 87q17 117 85 215q20 111 87 202l30 136q74 94 90 214l42 58q24 187 115 351q10 139 95 252q11 174 145 275l62 17h32l91 -41v0z" />
    <glyph glyph-name="I" unicode="I" horiz-adv-x="1761" 
d="M1269 2395q79 5 109 -71q22 -104 -41 -177l-20 -105q-71 -100 -101 -220q-65 -79 -78 -180l-55 -88q-28 -188 -132 -347l-24 -105l-17 -16q-17 -125 -85 -224q-26 -148 -99 -279l-19 -91l-31 -40q-19 -134 -102 -238q-14 -114 -98 -193l-44 -21l-75 4l-48 60
q-15 183 115 326l18 64l37 59q10 117 75 213l40 180l31 40q8 116 78 208l23 122q60 65 72 152q64 83 75 187l54 91q26 199 149 363q24 163 126 292l67 34v0z" />
    <glyph glyph-name="J" unicode="J" horiz-adv-x="2316" 
d="M1948 2407q112 3 155 -119q25 -118 -56 -200q-28 -196 -164 -335q-90 -144 -103 -313q-132 -259 -174 -550q-61 -80 -68 -178q-68 -100 -85 -219q-62 -174 -205 -290q-69 -24 -115 -83q-177 -107 -383 -115q-118 -13 -208 59q-106 158 -268 243q-77 61 -108 155
q-19 118 90 149q197 25 308 -160l48 -22q83 -129 234 -100l31 22q209 49 304 271l34 94q156 183 159 427q71 144 82 305q86 141 97 305q39 172 138 316l30 116q49 193 227 222v0z" />
    <glyph glyph-name="K" unicode="K" horiz-adv-x="2603" 
d="M2393 2293q16 -138 -104 -219q-207 -113 -347 -309q-114 -54 -191 -160q-155 -82 -236 -233v-125l14 -17q2 -154 83 -285l18 -337l13 -14q22 -195 84 -382v-115q-25 -51 -70 -83l-94 -3l-69 48l-42 90l-24 25l-18 118l-13 17l-25 212l-13 17l-59 487l-84 93h-31
q-109 -106 -257 -153l-153 -110q-117 -178 -160 -390l-59 -86q-7 -105 -73 -188q3 -144 -121 -201h-83q-92 58 -101 166q33 167 128 306q9 103 73 184q13 99 77 174l24 107q125 169 152 379q64 85 77 191l53 83q8 115 80 205l17 90l55 94l25 112l132 254q67 83 166 44
q94 -46 73 -160l-10 -100q-123 -135 -160 -309l-25 -28q-21 -154 -97 -288v-39l21 -30q83 5 129 90q61 21 101 72l72 28q154 113 278 257q109 56 173 156q147 89 251 227l38 23l38 53l139 69l104 -31l31 -76v0z" />
    <glyph glyph-name="L" unicode="L" horiz-adv-x="1647" 
d="M1262 2378q35 -144 -66 -252l-22 -88q-83 -98 -76 -231l-71 -151q-1 -125 -77 -231q-15 -172 -119 -312l-42 -137l-35 -45q-21 -111 -95 -193l-38 -151q-83 -97 -81 -224l38 -43l45 -21q338 75 636 -70l56 -81v-38l-43 -66l-66 -25l-271 21l-195 -4l-15 -10l-287 10
q-108 -48 -221 11l-24 63l6 115q80 133 95 288q61 72 81 165l32 39q18 88 76 154l39 122l39 50q14 92 77 164q22 127 91 235q5 125 77 232l21 98q69 92 78 210q73 100 80 228q73 70 113 164l49 36h76l39 -32v0z" />
    <glyph glyph-name="M" unicode="M" horiz-adv-x="3715" 
d="M3458 2297q16 -135 -85 -224q-137 -307 -193 -637q-65 -122 -85 -256l-54 -92q-28 -194 -109 -371q-4 -128 -70 -239q-15 -231 -119 -433l-97 -28q-122 -6 -142 101q-34 188 65 344q13 149 93 274q14 130 77 243q-1 169 97 310q11 156 73 297v31l-24 31l-68 -15
q-108 -139 -255 -232l-236 -243l-66 -32q-275 -201 -456 -487q-91 -103 -209 -34q-139 121 -120 313q-50 204 -150 390q-5 220 -112 410l-39 7l-92 -120q-31 -128 -109 -236q-31 -234 -143 -440q-2 -165 -97 -297q-10 -154 -85 -290q-18 -185 -146 -309l-98 -4l-73 58
l-23 73l4 182l43 47l46 162l101 250l23 28q47 290 185 545l19 135q68 97 82 216q147 231 162 507q46 141 193 150l47 -12l30 -33l50 -21q107 -111 132 -262q68 -90 73 -201l66 -131l31 -220l85 -255l66 -86l47 -15q102 42 173 127q80 35 128 108q119 55 193 170
q263 191 486 426q230 114 379 339l86 63l65 19l97 -16l58 -85v0z" />
    <glyph glyph-name="N" unicode="N" horiz-adv-x="2979" 
d="M1230 2341l31 -170q76 -98 98 -221l22 -27q14 -142 98 -252q14 -164 83 -313l22 -162l26 -83l20 -18l23 -84l93 -139l26 -98l80 -87l22 4l19 64l61 87l22 79l19 19q4 94 60 173q4 102 64 189q9 167 102 308l30 162q80 116 86 260l50 75q-2 163 116 276q152 48 196 -102
l-15 -110l-37 -60q-15 -105 -73 -195q-4 -131 -71 -242q-12 -202 -105 -380q-3 -103 -61 -188l-30 -170q-66 -80 -79 -181q-82 -110 -87 -252l-75 -162l-7 -79q-53 -82 -57 -181l-41 -67l-46 -16q-151 -10 -237 114q16 202 -116 354q-19 115 -83 214l-4 53q-82 138 -82 301
l-20 61l-37 52l-45 188l-34 45l-106 310l-34 34q-115 -24 -132 -144q-71 -81 -82 -188l-61 -94l-45 -237q-20 -153 -117 -264q-14 -145 -87 -267q-3 -138 -82 -249l-41 -173q-67 -136 -208 -105l-41 29l-38 64q-10 92 53 162l26 147l49 72q15 115 91 203q22 285 166 538
q13 139 82 260q13 134 83 249l26 139l57 75q17 133 83 249q-1 166 157 211l121 -15l53 -45v0z" />
    <glyph glyph-name="O" unicode="O" horiz-adv-x="2579" 
d="M1572 2402q145 28 259 -56l43 -10l65 -46l40 -9l98 -92l134 -164q16 -109 69 -207l7 -154l10 -13v-243q3 -126 -62 -229q-19 -148 -95 -275l-4 -37q-57 -68 -79 -157q-130 -229 -354 -373l-88 -89q-153 -60 -288 -151l-292 -95q-75 29 -154 20q-288 66 -472 292l-53 36
q-94 121 -115 271l-29 57l-23 173q-24 436 239 803q55 57 78 135q83 81 135 183q92 62 157 151q74 64 164 95l59 49q114 14 210 79q165 55 341 56v0zM1313 2114q-68 -60 -157 -76q-108 -43 -184 -128l-26 -6q-254 -221 -393 -532q-17 -122 -85 -229q5 -111 -27 -216
q-13 -184 65 -351q89 -133 220 -223q125 -64 262 -82l119 7q104 55 222 69q90 89 207 124l85 72q53 107 154 177q19 75 73 128l9 43q72 72 99 170l19 20q40 108 30 226l36 95q28 181 -36 351q18 150 -85 242l-20 43q-164 146 -387 102l-200 -26v0z" />
    <glyph glyph-name="P" unicode="P" 
d="M1152 2389q265 49 511 -51q237 -118 264 -385q21 -255 -58 -495q-181 -321 -519 -464q-228 -103 -475 -75q-211 -19 -265 -234q-22 -149 -86 -283l-8 -83q-65 -110 -93 -233l-28 -40l-85 -54l-90 12l-70 77q-19 192 106 347q21 284 170 514q38 236 149 441
q19 257 171 480q15 185 113 339q18 135 133 206h101l59 -19v0zM1218 2120q-211 -19 -226 -257l-24 -27l-42 -219q-98 -111 -90 -261l-24 -55l24 -43l62 -23q389 -29 643 254q104 102 90 241l16 16v129l-16 19q17 140 -121 183q-142 57 -292 43v0z" />
    <glyph glyph-name="Q" unicode="Q" horiz-adv-x="2595" 
d="M2106 2229l115 -125l17 -47q171 -190 152 -452l-24 -267l-13 -13q-35 -281 -206 -521l-139 -188q-111 -118 -41 -247q46 -88 119 -155q15 -73 -3 -145l-51 -47l-78 -14l-87 47l-129 159l-81 14l-111 -95l-173 -101l-225 -31q-86 -11 -166 21l-173 -7l-280 105
q-61 112 -178 172q-43 141 -138 253l-17 40q5 157 -34 307q-17 181 47 348q-3 319 216 550l27 64q89 74 138 176l82 77l27 11q71 136 216 151l108 57q150 9 286 72l456 -7l341 -162v0zM1566 2131q-128 -38 -263 -20l-81 -20l-47 -34l-129 -34q-59 -62 -141 -85
q-58 -89 -149 -137q-235 -282 -314 -635l-7 -284l-14 -13v-85l14 -13q-24 -101 41 -162l37 -91q62 -43 94 -108l243 -125l129 -17l108 13l131 72l98 6l155 88l48 84l-14 67q-95 98 -50 217l50 50l111 -16l119 -106l87 65l45 94q121 99 145 254l30 37l47 199l17 17l20 94
l14 14v148l-14 14l-3 50q-45 103 -128 176l-7 27q-172 195 -422 199v0z" />
    <glyph glyph-name="R" unicode="R" horiz-adv-x="2184" 
d="M1487 2399q306 52 446 -229l64 -226q20 -196 -107 -352l-28 -107q-160 -279 -443 -401q-92 -65 -41 -186l12 -13l19 -91l20 -19q23 -111 87 -203q31 -204 142 -372q36 -112 -48 -175l-68 -15q-135 44 -168 193l-23 120l-29 38q-12 139 -87 252l-93 265l-68 42
q-201 19 -378 -84q-87 -116 -101 -258l-51 -78q-10 -113 -71 -213q-5 -154 -97 -277l-74 -26l-81 16l-32 35v84l25 62v65l20 41l6 58q69 87 81 194l52 78q9 108 74 193l23 120l48 74l23 103l48 75q26 147 88 283l6 59q56 76 71 171l29 39l42 174q124 148 145 352l110 71
q210 -5 407 68v0zM1126 2018q-22 -97 -84 -178q-6 -92 -59 -164l-19 -78l-55 -84q-17 -141 -81 -268v-80l19 -16q298 25 531 200l51 16q39 58 103 83q133 146 190 336l7 55q55 197 -97 285l-200 16l-197 -36l-109 -87v0z" />
    <glyph glyph-name="S" unicode="S" horiz-adv-x="2184" 
d="M1441 2409q324 19 518 -248l47 -81l6 -67l-4 -98l-20 -34l-83 -26q-143 74 -216 221q-133 112 -299 75q-228 -95 -319 -327q-61 -158 37 -272q23 -105 95 -184q15 -98 70 -182q-2 -121 54 -232l6 -359q-54 -106 -60 -222q-98 -312 -397 -356q-357 -48 -618 189
q-20 74 -77 127l-30 87v28l34 73l63 27h44l87 -64q91 -171 282 -211q173 -49 313 84l20 50l37 41l37 124l17 20l17 110l-17 240l-14 16l-20 165l-57 83l-16 65q-79 89 -98 208l-30 40l-24 131l-13 17l-4 114l17 27l24 134l47 71l6 37q78 148 219 225q116 145 319 134v0z" />
    <glyph glyph-name="T" unicode="T" horiz-adv-x="2043" 
d="M402 2429q141 -33 287 -18l53 -18q202 34 399 -10q86 -10 165 21q164 21 321 -21l240 46l85 -50l25 -75q13 -117 -107 -164q-156 -47 -314 -7q-224 44 -335 -136q-45 -89 -54 -190l-54 -100l-7 -64q-67 -133 -93 -282l-21 -17l-57 -197l-40 -54q-8 -159 -96 -289
l-25 -132l-32 -54l-7 -71l-15 -15q5 -119 -57 -218q-3 -187 -146 -296l-39 -7h-54l-74 57q-44 133 28 254l24 175l54 100q17 175 97 332l7 57q65 90 75 200q71 109 82 240l57 96q14 173 93 328l43 193l-68 72h-142l-15 11l-175 7l-15 13q-117 12 -235 4l-57 43l-32 65
l36 104l67 42l128 25v0z" />
    <glyph glyph-name="U" unicode="U" horiz-adv-x="2642" 
d="M2384 2347q12 -125 -47 -240q9 -117 -40 -227l-18 -171q-62 -90 -75 -201l-39 -65q-7 -119 -79 -215q-41 -204 -158 -373l-61 -276l-15 -19v-71l15 -14l22 -108l17 -18l15 -61l43 -58q-3 -150 -158 -182l-82 25l-76 83l-61 197l-28 39q-99 -2 -173 -79l-144 -114
q-96 -26 -172 -93l-32 -4l-89 -61l-87 -22q-300 -52 -510 169q-107 120 -154 272l18 230q8 180 108 323q9 125 82 226l22 100q63 78 79 176q65 73 79 169l61 93q26 186 140 341q-1 122 54 229q90 85 186 28l18 -50l-7 -222q-117 -183 -158 -394q-71 -79 -93 -183l-40 -54
q-24 -156 -119 -283q-51 -109 -60 -230l-72 -140l-7 -176l-15 -14v-100q57 -148 191 -241q95 -36 165 33q232 34 377 219l208 146l255 241q21 79 78 139l22 97q121 171 154 384l19 18q2 456 236 814l83 33l96 -22l26 -43v0z" />
    <glyph glyph-name="V" unicode="V" horiz-adv-x="2386" 
d="M2143 2390l33 -78l-29 -115l-50 -44q-96 -188 -244 -340q-41 -122 -133 -208l-57 -101q-117 -87 -169 -229l-28 -25q-63 -167 -187 -298q-43 -120 -130 -215q-38 -141 -154 -230q-50 -138 -169 -226q-52 -181 -218 -273l-40 -6l-96 6l-54 61q-47 216 -18 438l-15 140
q-11 125 29 240l8 280l13 15v161l26 137l14 17v398q-36 222 47 420l78 44l80 -26q87 -138 53 -308q-72 -215 -33 -441l-24 -191l-15 -15l-7 -523l-10 -14q-30 -136 39 -244h21l90 65q55 128 166 219q130 272 326 501q38 129 136 215l18 51q159 163 262 362l29 22l132 219
l40 32l25 46l108 76h75l32 -15v0z" />
    <glyph glyph-name="W" unicode="W" horiz-adv-x="3264" 
d="M2992 2384q14 -154 -126 -254q-27 -108 -103 -187q-36 -155 -136 -271q-43 -139 -146 -237q-39 -150 -153 -259q-20 -81 -76 -143l-56 -149l-21 -21l-17 -73l-135 -167q-84 -94 -109 -212q-65 -67 -93 -156l-97 -149l-66 -35l-84 10q-148 126 -128 330q-24 214 18 424
v507l-15 101l-31 34q-37 -70 -101 -118l-21 -55l-48 -59l-25 -67l-51 -55q-21 -84 -84 -146l-17 -55q-55 -50 -77 -118q-126 -91 -152 -237l-67 -87l-21 -62l-48 -52l-28 -62l-48 -53l-25 -65l-174 -157l-62 -28q-160 -3 -163 181q18 441 170 854l6 167l18 17l18 73l21 21
l72 278l18 24l45 348l31 45l7 69l35 105l27 23q32 108 143 84q78 -37 63 -128l-18 -28q6 -186 -76 -351q2 -125 -59 -233q-30 -181 -101 -351q11 -174 -55 -333l-32 -191l14 -66l18 -13l27 13l28 66q115 96 156 236q132 124 180 295l21 14l56 101l28 21l49 93l35 32l17 48
l52 67l28 86q55 51 76 122l56 63q46 144 202 145q164 -85 121 -253l-18 -1109l21 -61l28 -11q61 144 180 246l29 95q62 60 59 152l73 101l13 48l38 31q29 89 95 153q54 158 163 289l3 31q180 200 243 473q96 161 254 256l80 -6l28 -49v0z" />
    <glyph glyph-name="X" unicode="X" horiz-adv-x="2871" 
d="M2475 2392q125 22 198 -74l4 -51q-9 -115 -129 -162q-93 -129 -230 -209q-41 -65 -109 -97l-28 -45l-31 -14l-129 -129q-123 -62 -195 -186q-146 -90 -196 -243l-4 -36q62 -128 74 -268q59 -80 63 -178q81 -106 91 -244l34 -77l8 -63q104 -123 31 -245q-107 -86 -213 11
l-35 97q-82 86 -81 207q-64 118 -76 251q-69 91 -91 205l-31 32l-70 7l-112 -81l-21 -34q-105 -60 -175 -157q-97 -56 -150 -153l-122 -98q-48 -105 -153 -154q-68 -51 -109 -126q-56 -52 -131 -66q-144 -7 -186 108v59q135 258 401 402q138 193 332 335l7 21
q128 67 192 192q147 94 132 254l-38 116l-27 27l-11 60l-14 14l-7 101q-85 143 -95 307l-76 168q-38 117 45 181q178 24 244 -143q20 -126 98 -223l21 -105q76 -102 98 -231l28 -42l66 -20l95 66l31 49l49 25l31 49l60 31q72 108 185 167q64 94 163 140q115 175 294 272v0z
" />
    <glyph glyph-name="Y" unicode="Y" horiz-adv-x="1893" 
d="M1641 2406q78 18 108 -46l-28 -82q-159 -141 -267 -326q-144 -126 -208 -312q-118 -104 -172 -245l-116 -117q-20 -66 -74 -110l-18 -55l-114 -150q-15 -92 -70 -166l-22 -123q-54 -65 -64 -147l-49 -76q-5 -138 -71 -258l-15 -80l-85 -89l-71 -27l-70 24l-31 50l5 122
q68 129 84 276q185 308 202 668q81 131 -22 264q-2 114 -67 208l-15 159l-56 117l-76 254l9 99l30 31q92 17 157 -44l15 -36l40 -40q21 -111 83 -206l18 -110l12 -9q47 -109 56 -227l68 -129l33 -30l58 28l61 94l31 19q110 111 162 254l41 40q25 69 79 120l19 48
q49 45 70 108q84 64 135 159q82 99 205 98v0z" />
    <glyph glyph-name="Z" unicode="Z" horiz-adv-x="2501" 
d="M1078 2404q182 -166 423 -148l18 -10q351 -7 699 39l86 -33l50 -46v-93q-62 -98 -175 -130l-111 -96l-29 -50l-47 -32q-77 -140 -204 -241q-42 -88 -126 -143q-75 -135 -200 -223q-79 -143 -209 -244q-101 -196 -277 -326q-149 -98 -121 -249q155 -168 351 -71h108
l57 -75l4 -86q-115 -176 -326 -165l-155 10q-52 51 -125 61l-176 122l-86 8q-120 -170 -312 -155q-81 23 -100 108l17 93l87 90q98 28 165 101h17q161 89 273 236l115 90q62 118 179 186l69 94q50 187 233 286q55 98 147 165l46 87l39 32q51 104 155 165l104 129l21 76
l-39 21l-83 7l-17 15q-190 -30 -367 28l-10 15q-244 14 -370 226l8 104l79 29l115 -7v0z" />
    <glyph glyph-name="bracketleft" unicode="[" horiz-adv-x="1770" 
d="M1447 2326l18 -81l-13 -65l-105 -91l-462 -9l-18 -14v-205l-32 -82q33 -203 -22 -398q24 -122 -24 -237q23 -164 -45 -310q43 -300 -55 -598l-14 -397q52 -115 33 -243l487 -17l79 -64l18 -124l-119 -114l-503 -18l-136 18l-74 -18l-50 8l-63 110l-14 160q-26 238 59 452
q-22 328 46 648q-20 145 27 283q-23 186 33 361q-46 351 26 694v160q54 89 55 191q123 141 334 83l461 -19l73 -64v0z" />
    <glyph glyph-name="backslash" unicode="\" horiz-adv-x="2122" 
d="M237 2159q150 15 242 -126q59 -127 172 -211q43 -127 145 -211q72 -157 204 -267q56 -131 175 -211l24 -54q147 -137 246 -310l40 -28q122 -219 316 -383l106 -176l12 -98l-19 -54l-83 -28q-200 18 -305 196l-59 152q-116 112 -188 255q-183 178 -320 391l-137 121
l-24 52q-115 99 -187 234l-59 47l-114 180l-62 48q-61 125 -168 215l-40 105q-20 122 83 161v0z" />
    <glyph glyph-name="bracketright" unicode="]" horiz-adv-x="1708" 
d="M809 2414q208 -36 417 -5q159 -32 157 -213q-36 -165 -19 -334l-31 -82q44 -205 -23 -399q20 -164 -28 -324l9 -60q-73 -197 -56 -407l-42 -311l-23 -468q56 -137 32 -286l-32 -47l-14 -130l-120 -115l-510 -19l-208 37l-47 92l14 107l84 78q224 57 458 24q-2 211 56 412
q-37 307 41 598q-20 178 33 347q-14 208 37 412q-34 131 5 264q-38 180 18 352l5 138l-398 6l-93 33q-113 143 28 263q122 42 250 37v0z" />
    <glyph glyph-name="asciicircum" unicode="^" horiz-adv-x="1400" 
d="M906 2304q81 -166 245 -256l29 -51q18 -117 -95 -150l-117 15l-135 127q-126 118 -285 37q-127 -119 -296 -113l-58 76q-8 125 113 176q92 13 161 77l40 7q89 93 208 135l102 -4l33 -43l55 -33v0z" />
    <glyph glyph-name="underscore" unicode="_" horiz-adv-x="1699" 
d="M580 -573q101 13 194 -22q307 37 614 0l231 18l113 -51l33 -77q-12 -131 -154 -154q-124 26 -248 -7q-139 40 -275 0q-124 26 -248 -7q-307 42 -611 -4l-176 18l-95 77l-11 41q-15 124 110 161q198 -64 387 -8h110l26 15v0z" />
    <glyph glyph-name="grave" unicode="`" horiz-adv-x="1162" 
d="M366 2386q146 -1 191 -154q88 -74 121 -186l47 -66l44 -175l-7 -92l-66 -51l-81 7l-102 95q-69 234 -231 421l-18 91q-1 89 102 110v0z" />
    <glyph glyph-name="a" unicode="a" horiz-adv-x="1567" 
d="M1032 1353q259 22 369 -186l29 -95l-4 -125l-25 -127l-15 -15q16 -100 -44 -165q-134 -205 0 -376l4 -51l15 -18l-62 -132q-107 -66 -223 -7q-205 157 -428 -55q-175 -11 -332 77l-139 164l-18 59l-26 25l-18 73q5 233 197 358l81 41l95 3l14 15h128l15 -15
q114 -11 204 -84l161 -58l29 3q103 115 102 271l-21 66q-150 110 -344 76l-73 48l-40 77l18 73l48 43l201 37h102v0zM506 348l40 -25l99 11l73 62l-15 40l-157 44l-88 -55l48 -77v0z" />
    <glyph glyph-name="b" unicode="b" horiz-adv-x="1567" 
d="M885 2154q103 -59 75 -179q-75 -133 -83 -286q-100 -139 -86 -306l55 -37h28l13 14q275 49 410 -200q68 -100 69 -224q34 -229 -90 -416l-16 -59q-174 -289 -486 -402q-117 -5 -220 -62l-241 17l-76 24l-75 100l-35 100q-21 131 65 230l42 151l18 17l58 238l21 24
q12 129 88 231l42 144l20 21l21 103l14 14l7 72q66 99 75 217q82 122 66 275l24 72l76 96l48 15l73 -4v0zM723 984q-150 -53 -148 -206q-78 -146 -94 -313l-37 -62l6 -76l18 -18h76q114 64 244 69l86 60l155 164l58 234l-6 87l-59 92l-72 27h-114l-93 -30l-20 -28v0z" />
    <glyph glyph-name="c" unicode="c" horiz-adv-x="1497" 
d="M745 1364q243 25 442 -106l87 -99l34 -94q23 -91 -48 -141q-147 -36 -250 96q-175 78 -341 7l-91 -87l-49 -99l-23 -18q-109 -198 -7 -401q96 -130 264 -107l95 34l163 31l79 -19q55 -91 7 -193q-106 -157 -302 -163q-293 -47 -480 163l-91 117l-76 254q-12 140 53 265
q-7 197 151 303q139 215 383 257v0z" />
    <glyph glyph-name="d" unicode="d" horiz-adv-x="2149" 
d="M1997 2041q30 -176 -80 -304q-31 -278 -162 -518l-22 -110l-59 -99q-5 -133 -81 -243l-25 -164l-15 -15q-32 -181 95 -312v-88l-95 -92q-186 -30 -315 122l-78 -4q-185 -219 -488 -213q-202 11 -352 154l-103 110l-40 107l-22 22l-22 88l4 154l40 62q44 276 304 429
q242 245 573 224q181 -52 326 -169l74 -11l33 44q13 103 77 184q3 134 80 242q-3 159 78 294l29 113l103 100l96 -34l47 -73v0zM870 1025q-280 -76 -418 -320l-15 -69q-37 -196 122 -294l117 -37q156 -14 271 103l63 70l33 15l121 125l52 213l-45 91l-121 95l-180 8v0z" />
    <glyph glyph-name="e" unicode="e" horiz-adv-x="1603" 
d="M866 1348q285 45 488 -154q60 -70 70 -161q49 -215 -111 -353l-98 -36l-206 -8l-14 -14q-166 -36 -335 -26l-18 -14l-77 -8l-36 -30q-33 -100 40 -175q81 -62 183 -71l15 -14h40l99 56l162 25l74 -56q23 -185 -151 -260q-115 -54 -242 -51q-285 -15 -452 216
q-74 81 -92 188q-31 308 103 586q184 319 558 360v0zM712 952l8 -19l47 -14q160 -37 301 25l25 71q-80 77 -205 51l-95 -37l-81 -77v0z" />
    <glyph glyph-name="f" unicode="f" 
d="M1705 2520q178 22 309 -104l26 -75q14 -208 -189 -242l-123 15l-79 -48l-178 -495v-86l30 -29l186 -3l70 -27l42 -85q-20 -208 -227 -220h-157l-100 -66q-89 -166 -127 -350l-63 -108l-18 -97l-45 -74q-2 -142 -78 -257l-41 -152q-101 -119 -86 -289q-87 -354 -338 -607
q-61 -53 -141 -63q-176 -28 -297 108l-34 70q-15 170 167 216q238 -46 317 193q15 111 78 201q1 148 81 271q-6 123 71 205q10 117 78 209q18 144 101 259l40 179l37 59q17 131 -104 164q-110 86 -56 216q85 109 234 63l87 82l52 227q70 94 81 215q55 77 59 171
q96 208 279 342l56 12v0z" />
    <glyph glyph-name="g" unicode="g" horiz-adv-x="1955" 
d="M1257 1305l31 -39l63 -28q56 -90 149 -54q33 124 156 152l94 -12l36 -34l23 -71l-7 -137q-96 -136 -106 -301q-67 -122 -86 -258q-86 -132 -87 -291q-86 -137 -86 -301q-69 -93 -82 -211l-62 -94l-32 -121l-35 -95l-23 -23l-21 -74q-90 -148 -242 -220l-31 -39l-184 -63
l-310 20l-128 31q-53 52 -126 67l-47 46l-35 80l7 109l99 62q181 -5 348 -93q229 -20 379 152l71 211l24 28q20 112 82 208l8 90l-31 43h-95l-16 -16q-219 -61 -426 39q-224 112 -282 337v82l-12 15q-30 351 200 608l172 140l110 74l145 40l305 -24l90 -35v0zM917 1051
q-207 -22 -310 -192l-66 -224q-36 -186 97 -305l63 -15q245 13 391 211l21 54l54 67l39 137q17 178 -145 251l-144 16v0z" />
    <glyph glyph-name="h" unicode="h" horiz-adv-x="1902" 
d="M997 2533q113 29 147 -67q26 -173 -79 -310l-51 -210l-36 -51q-16 -124 -87 -226l-29 -170q-81 -115 -87 -262l-44 -83l9 -111l86 -8q161 94 346 114q60 49 139 56q138 115 320 88q103 -25 119 -135l-20 -226q-68 -97 -83 -215l-60 -107l-7 -122l-12 -8l15 -127
q112 -133 44 -281l-102 -71l-96 4q-196 144 -195 391q9 116 68 212q30 108 16 220l-48 28l-170 -23q-192 -142 -424 -159q-143 -41 -158 -174l-40 -63l-52 -246q-37 -187 -201 -182l-103 95l3 147q60 96 68 210l67 126q17 168 99 318l24 110q152 225 174 508q85 122 95 276
l36 55q8 141 83 259q11 112 83 197q-2 169 143 223v0z" />
    <glyph glyph-name="i" unicode="i" horiz-adv-x="1127" 
d="M814 2109q111 9 139 -115q9 -115 -107 -158l-91 4l-39 39l-17 64v51l41 87l74 28v0zM577 1372q106 17 167 -75l15 -75q-37 -170 -122 -321q-4 -271 -151 -512l-51 -257l-108 -115l-110 7l-44 41l-35 67v110q67 108 62 238l80 171q1 117 64 217l51 266l76 167l106 71v0z
" />
    <glyph glyph-name="j" unicode="j" horiz-adv-x="1849" 
d="M1754 2217l63 -79q24 -118 -75 -178l-99 17l-54 75l4 108l33 45l71 20l57 -8v0zM1465 1368l41 -54l17 -75q2 -252 -129 -472l-8 -75q-67 -102 -66 -228q-89 -155 -108 -335l-24 -25q-8 -177 -108 -314q-10 -145 -91 -261q-75 -311 -323 -518l-195 -100l-103 -8
q-191 -32 -331 91l-83 25l-55 42q-135 9 -153 148l33 125l55 50q163 41 276 -83q179 -91 353 -13l133 116l8 33l57 58q26 135 108 249q13 100 75 178l25 136l16 17l9 96q71 123 86 268l62 113q4 170 96 310q-71 406 220 522l107 -16v0z" />
    <glyph glyph-name="k" unicode="k" horiz-adv-x="1743" 
d="M1118 2508q39 -127 -41 -212q-5 -138 -84 -244q-7 -176 -84 -335l-23 -134l-75 -133q3 -131 -62 -240q-8 -164 -84 -305v-73l31 -19l91 35q278 184 504 431q76 11 133 65l76 -24l61 -76q9 -125 -103 -191q-122 -53 -195 -168q-171 -76 -275 -232l8 -87q66 -86 161 -134
q79 -115 206 -172l91 -87v-119l-91 -53l-195 30q-75 72 -175 104q-147 217 -381 263q-103 -14 -137 -111q8 -168 -118 -256h-92l-38 35l-9 30l-41 46l-8 85l8 83q53 94 65 202q72 104 84 230l38 59q3 140 80 248q15 154 84 295l22 117l43 115l22 22l62 225l23 27l23 118
l14 15l8 111l54 107l18 130l108 177l79 40l61 -8l53 -32v0z" />
    <glyph glyph-name="l" unicode="l" horiz-adv-x="1321" 
d="M1218 2441q3 -203 -102 -373l-19 -83l-36 -55l-52 -204q-57 -57 -47 -145q-85 -153 -105 -326l-60 -103q-14 -145 -90 -271q-9 -147 -78 -275q-6 -159 -87 -295l-32 -133l-93 -165l-76 -35q-113 -13 -145 106v117q66 122 79 260q88 126 90 279q80 106 86 244l40 66
l19 102l83 150q-1 116 71 200q32 156 102 299q14 154 86 291l8 176l20 75q65 54 91 138l90 63l122 -8l35 -95v0z" />
    <glyph glyph-name="m" unicode="m" horiz-adv-x="3163" 
d="M655 1368q118 9 148 -123v-54q-91 -131 0 -237q204 -20 363 105l178 59l80 73l207 100h93q141 -91 119 -266l62 -51l242 47l333 135l21 22l122 29q139 117 301 21l41 -67l13 -102l-33 -144l-26 -25l-46 -135l-46 -59l-26 -118l-17 -18l-21 -176q97 -121 59 -258l-68 -64
l-122 -29q-212 66 -232 292q-13 190 46 375l-33 34l-48 8q-274 -105 -565 -143q-209 -80 -224 -304q-37 -123 -131 -212l-135 5q-180 105 -106 324l80 204v59l-29 33h-84q-230 -130 -498 -164q-150 -55 -144 -229l-81 -215l-118 -97l-101 18l-68 97q-24 237 106 442
q14 133 93 241q14 123 88 220l35 199l75 117l97 31v0z" />
    <glyph glyph-name="n" unicode="n" 
d="M1617 1346q128 19 200 -92l26 -59l-8 -206q-67 -126 -89 -267q-105 -148 -84 -332l109 -164l5 -129l-47 -76l-100 -33q-138 0 -222 113q-142 195 -54 427l25 34q35 135 25 272l-47 43q-146 -46 -264 -147l-74 -8l-18 -17l-393 -109l-96 -160l-30 -134l-16 -17
q0 -154 -122 -247l-60 -25h-49l-88 88l-13 62l8 101q150 235 177 524q77 105 96 236l38 62q0 167 146 235l118 -8l49 -118v-143l30 -41q189 5 332 147q119 25 216 96l114 25q70 58 160 67v0z" />
    <glyph glyph-name="o" unicode="o" horiz-adv-x="1673" 
d="M1011 1353q304 -51 437 -312q61 -128 70 -268q-62 -355 -338 -605q-174 -150 -393 -144l-77 -18q-240 -1 -411 173l-44 58q-16 92 -76 166l-26 179q-26 190 84 341l26 77q62 48 91 122l180 158l78 18l22 22l95 33h282v0zM747 1037q-186 -44 -264 -228l-48 -142l4 -96
l22 -33q6 -151 143 -202l51 -7l173 7q262 93 370 342l26 120l-22 107q-194 172 -455 132v0z" />
    <glyph glyph-name="p" unicode="p" horiz-adv-x="2078" 
d="M883 1359q96 -8 178 -60q249 107 499 44q319 -172 321 -522l-7 -181l-107 -238q-122 -77 -188 -201q-90 -82 -212 -106l-60 -38l-220 -41l-197 11l-128 64q-210 5 -208 -257q-9 -157 -102 -283q0 -262 -208 -410l-103 19l-52 87l26 155q74 97 83 216q80 131 83 281
q86 124 103 272l34 57q11 176 106 332l22 103l42 53l41 135q84 91 87 213l16 15l7 159l72 105l72 16v0zM1291 1034q-278 -26 -408 -261l-80 -265l4 -103l87 -76l76 -18h71l92 34h94l91 30l41 57l72 46l20 37q109 82 124 224l-37 162q-62 171 -247 133v0z" />
    <glyph glyph-name="q" unicode="q" horiz-adv-x="1788" 
d="M1245 1251l73 -15l122 110l125 8l31 -32l25 -64q-9 -159 -88 -295q-21 -197 -136 -363l-42 -217l-58 -85q-16 -165 -95 -313l-7 -74q-142 -208 -157 -452l-47 -122l-60 -67l-82 4l-77 93q1 110 45 213q-1 134 61 256l14 163l-36 32l-206 -32l-14 15l-153 24l-60 54
q-147 55 -221 206l-60 235l4 167q98 351 391 572q81 17 142 74l128 36l281 -36l157 -95v0zM856 1094q-192 -28 -323 -181l-114 -178l-21 -103l14 -153q32 -156 196 -167l67 4l15 14q216 27 340 213l86 128l21 121v110l-32 96q-109 92 -249 96v0z" />
    <glyph glyph-name="r" unicode="r" horiz-adv-x="1849" 
d="M1464 1362q140 27 187 -106l29 -146q31 -135 -65 -205l-86 -16q-255 119 -497 -94q-135 -53 -282 -49q-129 -23 -166 -142q-17 -370 -281 -591q-129 -22 -168 101v98l37 151l25 29q38 166 130 309q10 139 94 249q40 131 16 269q52 166 224 114l41 -48q9 -127 114 -188h69
q178 45 331 147l65 7q74 85 183 111v0z" />
    <glyph glyph-name="s" unicode="s" horiz-adv-x="1594" 
d="M886 1360q239 28 417 -135l86 -88l25 -48v-66l-45 -56q-128 -20 -216 80q-166 91 -330 -3q-79 -70 -48 -170l59 -90q170 -121 239 -317q32 -152 -79 -274q-108 -161 -282 -184h-55q-106 51 -223 59q-214 99 -281 330q-18 99 66 136h83q79 -58 126 -147q142 -121 309 -65
q97 69 24 170l-184 170q-22 76 -80 132l-10 226q125 253 399 340v0z" />
    <glyph glyph-name="t" unicode="t" horiz-adv-x="1303" 
d="M980 1968q-1 -145 -73 -274v-76l40 -44q164 40 278 -66l22 -40q22 -118 -69 -190l-125 -48q-155 58 -277 -21q-98 -128 -132 -285q-80 -119 -80 -263q-93 -158 -77 -340q74 -142 -22 -263l-73 -55l-99 7q-147 110 -117 289q37 254 150 482q5 136 70 252q54 212 -201 249
l-37 91l22 95l51 40h227l80 29l44 70q8 86 55 157q-8 177 120 299l81 15l98 -26l44 -84v0z" />
    <glyph glyph-name="u" unicode="u" horiz-adv-x="2131" 
d="M1750 1389q139 -1 185 -134l5 -83l-23 -148l-78 -143l-120 -323v-101l129 -194q50 -170 -88 -264l-79 -9l-129 37l-207 245q-158 54 -273 -78l-73 -24l-37 -41q-301 -216 -600 -33q-169 122 -190 333l23 273q87 173 116 369l41 45l69 172l84 68l142 5l75 -106l-24 -198
q-85 -134 -101 -291q-145 -174 -9 -301l28 -17q192 -7 327 142q172 50 291 190q223 86 300 309l51 65l36 138l129 97v0z" />
    <glyph glyph-name="v" unicode="v" horiz-adv-x="1886" 
d="M448 1351q117 25 143 -77q25 -286 -19 -571l19 -93l40 -43l92 39l47 47l58 27q173 253 427 408q127 180 322 256q121 24 144 -94q3 -204 -206 -317l-50 -28q-56 -114 -160 -174q-136 -200 -341 -319l-256 -237l-74 -26q-62 -87 -155 -136q-137 -28 -205 96l-16 70l11 357
l28 163l15 16q-9 231 27 462l15 15l16 98l78 61v0z" />
    <glyph glyph-name="w" unicode="w" horiz-adv-x="2789" 
d="M622 1259l-28 -353q-77 -129 -36 -275l20 -16q222 -8 377 197l20 35q119 53 185 162l50 35l119 157l94 51q158 -7 184 -173q-74 -265 76 -448h23q66 71 157 95q91 109 220 176l121 153q124 224 343 213l28 -20l31 -59q10 -219 -165 -318l-47 -64l-52 -23l-50 -58l-36 -16
q-173 -220 -404 -374l-24 -39q-129 -91 -224 -220l-90 -24q-171 57 -162 252l-7 188l-16 20q-1 78 -32 149l-47 21l-55 -24q-134 -138 -302 -232l-40 -63l-145 -94q-72 -105 -185 -169l-51 -67l-75 -24l-110 31l-55 107l40 511l15 15q74 279 71 566l20 43l97 83l91 -16
l56 -91v0z" />
    <glyph glyph-name="x" unicode="x" horiz-adv-x="1726" 
d="M1431 1365q112 10 139 -108l-19 -113q-100 -73 -159 -178l-40 -19l-19 -35l-82 -66l-14 -35q-173 -78 -164 -241q21 -91 89 -156q34 -115 129 -194l23 -57l-16 -106l-89 -77q-230 37 -322 272l-85 81l-31 11q-209 -86 -307 -287q-125 -90 -244 0l-24 74q12 340 365 528
q43 186 -85 330q-87 147 7 275l28 24l97 -19l74 -70l73 -148l31 -23l28 -55l42 -35h35l82 31l329 326l66 51l63 19v0z" />
    <glyph glyph-name="y" unicode="y" horiz-adv-x="2008" 
d="M1879 1324v-103q-127 -143 -159 -329l-22 -19q-17 -91 -84 -159q-19 -127 -102 -219l-34 -102l-50 -64q-19 -121 -101 -213q-12 -75 -61 -135l-46 -174q-132 -137 -170 -333q-36 -83 -110 -132q-75 -153 -242 -224l-131 -30q-199 -40 -341 87q-110 26 -133 135l12 99
l57 34h98q237 -156 442 34l80 91l185 386v136l-38 49q-10 132 -87 235l-23 102q-66 87 -78 196l-62 92q-20 148 -82 283q-84 164 26 269q45 9 91 8l30 -23q140 -196 171 -439q22 -68 78 -114q22 -156 129 -268q148 -13 189 167q41 187 174 332l30 106q69 71 87 171l61 82
l65 35h68l83 -49v0z" />
    <glyph glyph-name="z" unicode="z" horiz-adv-x="1779" 
d="M510 1328q252 -68 506 -39l16 -15q117 9 229 -28l86 9q134 110 265 15l35 -50q13 -142 -101 -227q-231 -122 -406 -320l-108 -66l-118 -147l9 -40q125 -186 319 -93h117l55 -51q20 -206 -196 -269l-104 -35q-197 -18 -347 121q-182 73 -359 -47q-123 -41 -221 35l-40 82
l16 90q204 277 518 436q75 107 191 164l77 89q-56 105 -194 94h-98l-179 59q-112 101 -12 210l44 23v0z" />
    <glyph glyph-name="braceleft" unicode="{" horiz-adv-x="1497" 
d="M1086 2315q138 34 228 -63l16 -73q-15 -99 -112 -143q-136 -59 -283 -66l-89 -66q-39 -248 -175 -450l-19 -77l-31 -35l-23 -128q-105 -125 -147 -286q35 -179 135 -334q4 -165 97 -306l35 -178q2 -277 240 -295l209 -85l86 -112l-19 -93l-94 -58l-194 16l-109 38l-26 30
q-175 34 -322 133q1 116 -59 213q-50 133 -38 275l-23 132q-82 119 -105 264q-151 146 -159 348q-7 164 112 290l66 70q20 136 112 241q53 121 47 251l128 380q78 10 140 59l186 45l31 28l159 35v0z" />
    <glyph glyph-name="bar" unicode="|" horiz-adv-x="687" 
d="M326 2125q136 -8 154 -146q41 -176 -11 -340q28 -158 3 -315q34 -227 -22 -446q-54 -320 4 -633l-7 -157q46 -104 40 -219l-40 -165l-52 -73l-87 -33l-33 7l-59 77l-22 139q77 345 11 680q22 168 0 337l18 87q29 353 -25 699q25 140 7 282q-20 170 121 219v0z" />
    <glyph glyph-name="braceright" unicode="}" horiz-adv-x="1453" 
d="M299 2306q161 14 306 -58l35 -31q133 -15 236 -97l69 -23q1 -118 62 -216q53 -133 35 -271l27 -144q81 -117 104 -259q147 -154 159 -353q16 -134 -89 -227l-19 -55l-70 -73l-51 -147q-124 -146 -107 -345l-20 -31l-31 -139l-27 -27l-16 -77l-23 -35l-7 -62
q-121 -79 -264 -94q-117 -74 -259 -84l-162 11l-62 51l-19 73l11 43l82 88q154 65 320 89l74 55q63 306 225 568l15 109q100 137 155 298q-33 188 -140 340q-1 166 -93 306l-35 171q0 279 -236 294l-212 89l-85 112l19 93l93 58v0z" />
    <glyph glyph-name="asciitilde" unicode="~" horiz-adv-x="1338" 
d="M1242 1286q27 -155 -91 -263l-256 -81q-178 16 -326 117q-184 10 -314 -117h-103l-47 40l-26 44l33 114q201 211 490 179l117 -22q133 -110 282 -40l29 36l84 37l102 -18l26 -26v0z" />
    <glyph glyph-name="exclamdown" unicode="&#xa1;" horiz-adv-x="1233" 
d="M997 2399q128 13 178 -94l5 -80q-6 -80 -84 -120h-45l-22 -18q-107 32 -152 134l-4 67v30l31 41l93 40v0zM695 1225q123 4 164 -97v-143q-68 -128 -71 -268l-18 -19l-31 -218l-67 -125q-26 -270 -169 -504l-55 -246q-10 -250 -210 -317l-119 27l-37 55l-8 56l8 149
q103 174 121 378q116 265 165 550l73 128q2 192 97 359q-13 186 157 235v0z" />
    <glyph glyph-name="cent" unicode="&#xa2;" horiz-adv-x="1391" 
d="M1163 1933q88 -149 4 -316l-121 -298q183 -65 226 -248v-79l-23 -42q-156 -78 -274 76l-27 -5l-11 -71q-78 -100 -83 -226q-87 -154 -102 -332l-26 -48v-16q126 -2 245 61l94 -18q61 -102 -4 -212q-109 -136 -290 -146l-140 3l-25 -98q-57 -59 -76 -139l-31 -34l-55 -19
l-68 7l-60 61l-11 147l59 170q-208 164 -237 436q-13 142 53 264q7 220 196 365q177 194 437 203l3 46l34 79q-37 175 75 294q26 103 125 139l113 -4v0zM673 1048q-155 -84 -218 -260l-38 -154v-64l38 -117l30 23q50 101 64 214l37 64l20 98q62 81 86 178l-19 18v0z" />
    <glyph glyph-name="sterling" unicode="&#xa3;" horiz-adv-x="2052" 
d="M1544 2375q201 -49 260 -246l57 -57l31 -102v-81q-16 -23 -41 -37h-61l-94 85l-17 54l-27 26q-47 142 -206 173l-108 7l-182 -88q-149 -141 -162 -335q-76 -122 -95 -266l21 -14q154 57 226 -67l3 -68l-88 -84l-239 -3l-17 -17q-18 -95 -78 -173q-14 -104 -81 -185
l-16 -71l-58 -77l-20 -106q-88 -101 -88 -229q213 56 402 -54q118 -145 290 -97l41 19h101l54 -70l3 -82q-109 -164 -304 -155l-138 7q-53 48 -125 61l-169 114l-81 8q-111 -160 -290 -146q-98 28 -125 125l7 111q76 128 91 277q59 64 74 152l34 41l37 101l37 47l37 119
l31 37q29 113 95 212l6 37l-34 10q-81 93 4 182q160 8 172 176l20 95q91 116 104 266l106 190q161 198 398 212l202 -34v0z" />
    <glyph glyph-name="currency" unicode="&#xa4;" horiz-adv-x="1285" 
d="M1124 1496l31 -21q0 -128 -144 -184q77 -196 -35 -379l-87 -113l5 -26l77 -57l57 -79l-8 -87l-74 5l-88 87l-22 43l-39 18q-155 -178 -374 -153l-52 22l-74 73l-53 -69l-83 -39l-69 18q8 150 174 213q-29 210 105 376l113 126q-117 62 -118 182l26 36l66 -13l100 -113
l21 -5q68 67 157 95q116 -6 210 -74l61 84l79 34h38v0zM745 1278q-204 -94 -292 -310l-30 -113l4 -82l52 -75l110 23q219 137 292 383q8 89 -53 153l-83 21v0z" />
    <glyph glyph-name="yen" unicode="&#xa5;" horiz-adv-x="2131" 
d="M1871 2454q80 18 110 -47l-29 -85q-163 -144 -272 -332l-88 -90q-75 -198 -219 -348q-75 -153 -208 -261l-18 -47l-54 -63l-2 -25l200 12l97 -43q67 -100 -25 -173l-78 -31q-107 22 -213 -6l-119 15q-85 -113 -79 -250q221 88 373 -53q41 -99 -56 -161l-66 -18
q-107 23 -213 -10q-72 27 -148 19l-28 -57q5 -119 -59 -222l-13 -69l-84 -91l-73 -28l-72 25l-34 50l6 125q67 120 73 258l-104 -13l-129 16l-81 59l-19 47q-13 107 94 142l264 -26q185 9 159 242l-28 9l-101 -13l-146 19l-76 66l-9 82q62 140 222 88q99 -46 189 6
q55 138 -42 270l-28 137l-19 16q-40 98 -34 207q-135 214 -135 461q33 76 120 50q75 -10 96 -82l44 -40q21 -113 82 -210l18 -113l13 -10q47 -111 57 -232l68 -131l36 -32l59 29l62 96q146 95 191 270q107 90 144 216q45 96 126 161q80 169 251 216l47 3v0z" />
    <glyph glyph-name="brokenbar" unicode="&#xa6;" horiz-adv-x="1109" 
d="M773 2296q12 -234 -66 -456l-21 -320q-6 -162 -144 -192q-131 16 -133 161l27 175l28 22q-2 133 32 262l-17 131l6 108q57 64 70 151l50 46l92 17l45 -27l31 -78v0zM574 984q10 -192 -46 -375q19 -141 -28 -275q3 -160 -78 -301l-81 -32q-132 16 -129 162q33 128 28 260
l29 63l2 126l25 25l-18 129l8 109q56 63 70 151l49 45l91 21l42 -24l36 -84v0z" />
    <glyph glyph-name="section" unicode="&#xa7;" horiz-adv-x="2052" 
d="M1218 2384q345 74 622 -105l111 -188l-7 -199l-70 -70q-196 -23 -287 205q-324 40 -557 -188l-106 -112l-105 -164l-5 -75q252 64 497 -18l205 -141l130 -258q72 -523 -176 -984q-188 -384 -552 -581l-188 -42q-227 -25 -421 100l-100 152l-17 106l-71 117l7 95l35 35
l170 18l199 -206q283 -32 487 175l164 188l70 117v53q-345 -92 -622 147l-58 100q-166 99 -218 298q-62 442 153 839q174 362 522 545l188 41v0zM730 1042q34 -239 254 -311l146 18l211 106l18 28q-18 180 -200 241l-140 11l-183 -29l-106 -64v0z" />
    <glyph glyph-name="dieresis" unicode="&#xa8;" horiz-adv-x="1453" 
d="M293 2370q136 27 198 -106q52 -184 -99 -234l-117 11l-47 47l-26 74q-9 135 91 208v0zM1171 2264q57 -184 -95 -234l-117 11l-48 47l-29 74q-4 135 95 208l95 -4l84 -69l15 -33v0z" />
    <glyph glyph-name="copyright" unicode="&#xa9;" horiz-adv-x="2501" 
d="M1567 2406q289 15 490 -198q245 -227 234 -558q40 -476 -212 -871l-22 -69l-51 -55l-33 -73q-376 -459 -951 -589l-198 33l-25 22q-257 56 -413 271q-132 81 -139 241q-73 135 -69 289q-25 434 234 801l21 18q183 396 574 599q103 -1 172 66q186 73 388 73v0zM1293 2110
q-83 -64 -183 -92q-88 -36 -147 -108q-160 -42 -201 -202q-187 -183 -245 -435l-25 -33q-68 -150 -59 -318q-34 -249 124 -428q159 -206 425 -230l113 7q107 56 227 69q94 92 216 132l84 73l14 33l132 136q52 157 161 281l58 139q-15 144 48 271v212l-15 73l-14 15l-22 186
l-33 72l-29 22q-69 141 -234 158h-183l-212 -33v0zM1358 1796q148 21 264 -66l73 -117l-4 -62l-58 -15l-132 132q-217 25 -369 -132q-223 -207 -216 -504q6 -207 190 -278q191 -21 351 99l29 -8l15 -22l-7 -51q-127 -124 -304 -128q-165 -13 -289 106l-80 143l-15 124l4 99
q40 81 44 172q88 273 318 446q83 58 186 62v0z" />
    <glyph glyph-name="ordfeminine" unicode="&#xaa;" horiz-adv-x="836" 
d="M642 2299q11 -149 -59 -286l30 -73l-8 -58l-29 -30l-47 -3l-92 36l-121 -51l-139 33l-54 66l-26 69l29 110q154 146 340 4q77 41 52 135l-55 33l-99 8l-37 43l4 37l18 18l85 15l149 -18l41 -41l18 -47v0zM316 1977l30 25l-8 19l-73 11l-18 -15l29 -44l40 4v0z" />
    <glyph glyph-name="guillemotleft" unicode="&#xab;" horiz-adv-x="1312" 
d="M598 2345q25 -123 -62 -209l-11 -44l-62 -62q-45 -203 -223 -307l-92 4l-40 33l-11 29q-16 132 91 216l191 340l87 80l99 -29l33 -51v0zM1099 2264q5 -132 -95 -216l-7 -29l-41 -33q-66 -173 -223 -263h-102l-44 37l-11 29q-10 197 154 325q57 176 223 256l87 -22l59 -84
v0z" />
    <glyph glyph-name="logicalnot" unicode="&#xac;" horiz-adv-x="1785" 
d="M585 1978q233 -49 465 -4q293 -37 585 0q68 -17 121 -65q62 -187 7 -388l22 -227l-18 -179l-81 -95l-40 -11q-124 -16 -165 110q-8 124 30 241q-39 150 -11 304l-15 25l-117 -11q-116 53 -223 0q-116 19 -231 -7q-317 41 -632 -4q-166 -22 -271 99l-11 40
q-17 124 110 165l267 -26l175 18l33 15v0z" />
    <glyph glyph-name="registered" unicode="&#xae;" horiz-adv-x="2510" 
d="M1566 2407q289 15 490 -198q245 -227 234 -559q40 -476 -212 -871l-22 -69l-51 -55l-33 -73q-376 -459 -951 -589l-198 33l-25 22q-257 56 -414 271q-132 81 -139 241q-73 135 -69 289q-25 434 234 801l22 18q183 397 574 600q103 -1 172 66q186 73 388 73v0zM1292 2111
q-83 -64 -183 -92q-88 -36 -147 -109q-160 -42 -201 -202q-187 -183 -245 -435l-25 -33q-68 -150 -59 -318q-35 -249 124 -428q159 -206 425 -230l113 7q107 56 227 69q94 92 216 132l84 73l14 33l132 136q52 157 161 281l58 139q-15 144 48 271v212l-15 73l-14 15l-22 186
l-33 73l-29 22q-69 141 -234 158h-183l-212 -33v0zM1420 1855q158 27 226 -128l22 -88q-4 -223 -190 -366l-91 -51l-19 -29q9 -211 139 -392l-7 -66l-51 -25l-55 36l-135 377q-71 47 -158 11l-58 -33q-12 -83 -66 -142q-7 -140 -84 -249l-33 -11l-48 11l-11 22
q12 186 117 344l55 172l19 18q23 149 98 278l15 77q29 238 252 212l63 22v0zM1251 1668l-142 -362v-37l14 -10l158 43q213 70 256 282q25 93 -48 139l-84 7l-106 -22l-48 -40v0z" />
    <glyph glyph-name="overscore" unicode="&#xaf;" horiz-adv-x="1818" 
d="M633 1887q101 13 194 -22q307 37 614 0l231 18l113 -51l33 -77q-12 -131 -154 -154q-124 26 -248 -7q-139 40 -275 0q-124 26 -248 -7q-307 42 -611 -4l-176 18l-95 77l-11 41q-15 124 110 161q198 -64 387 -8h110l26 15v0z" />
    <glyph glyph-name="overscore" unicode="&#x2c9;" horiz-adv-x="1818" 
d="M633 1887q101 13 194 -22q307 37 614 0l231 18l113 -51l33 -77q-12 -131 -154 -154q-124 26 -248 -7q-139 40 -275 0q-124 26 -248 -7q-307 42 -611 -4l-176 18l-95 77l-11 41q-15 124 110 161q198 -64 387 -8h110l26 15v0z" />
    <glyph glyph-name="degree" unicode="&#xb0;" horiz-adv-x="880" 
d="M497 2373q166 -1 241 -146l15 -77q5 -180 -113 -311q-126 -176 -333 -219q-119 -16 -175 91l-26 103v124q94 308 391 435v0zM504 2230q-176 -88 -252 -274l-14 -76l14 -106l33 -26l88 18q190 111 245 322l-22 102l-37 29l-55 11v0z" />
    <glyph glyph-name="plusminus" unicode="&#xb1;" horiz-adv-x="1611" 
d="M744 1970q116 -6 143 -113l11 -41q-25 -115 7 -230l-11 -135q185 -19 370 11l109 -48l41 -84q-12 -117 -128 -150q-131 14 -260 -15l-132 11q-19 -114 19 -219q26 -173 -103 -274l-40 -11q-124 -14 -165 113q53 194 11 388q-117 20 -234 -11l-150 14l-106 84l-11 41
q-17 124 110 164q124 8 241 -29q83 -10 158 29q20 180 -15 359q16 133 135 146v0zM258 310q123 6 241 -30q169 50 337 8q231 -15 461 18l113 -51l33 -81q-10 -134 -154 -157q-124 25 -248 -7q-304 54 -611 -4l-194 26l-77 73l-15 40q-14 124 114 165v0z" />
    <glyph glyph-name="twosuperior" unicode="&#xb2;" horiz-adv-x="854" 
d="M461 2376q119 25 202 -53l28 -63q17 -161 -114 -259q-163 -95 -296 -227l9 -32q130 -39 268 -28l17 -22l-4 -41l-59 -16q-139 22 -278 6l-92 17l-32 31l19 66q150 183 357 303q83 53 110 145l-6 57l-57 34l-66 -13q-72 -81 -142 -21v47q48 74 136 69v0z" />
    <glyph glyph-name="threesuperior" unicode="&#xb3;" horiz-adv-x="801" 
d="M525 2363l29 -15q102 55 164 -15l-11 -36l-112 -62l-88 -102l7 -32q112 -101 92 -248q-52 -201 -255 -222q-163 -6 -281 116l4 69l44 22l62 -18l47 -44l72 -33q129 8 165 125q16 90 -55 137l-40 4q-68 -33 -142 -25l-29 36l11 73l18 18l138 51l59 58l-19 29l-181 8
l-15 22l7 58l72 29l117 4l120 -7v0z" />
    <glyph glyph-name="acute" unicode="&#xb4;" horiz-adv-x="792" 
d="M455 2348q147 14 193 -124q5 -284 -197 -494l-120 -69l-84 4l-88 73l15 102q85 49 131 139l7 256l88 98l55 15v0z" />
    <glyph glyph-name="paragraph" unicode="&#xb6;" horiz-adv-x="2492" 
d="M1302 2370l23 -17q286 32 574 -10l274 23l134 -61l40 -97q-45 -105 -31 -221l-48 -79q-11 -175 -116 -318q-37 -212 -139 -403q-15 -200 -137 -363q-26 -171 -111 -325q-19 -208 -145 -378l-31 -163q-110 -147 -134 -334q-105 -154 -105 -335q-30 -219 -221 -279
q-130 -18 -188 100l-8 100q164 243 200 532q122 175 156 392l23 25q-1 210 143 379q13 205 131 379l-14 60q149 242 196 523q79 98 97 221q83 136 94 296l-164 -9q-22 -242 -166 -425l-40 -135q-150 -208 -130 -466l-43 -61q-9 -229 -140 -410l-21 -177q-90 -124 -96 -279
q-111 -148 -135 -336q-103 -161 -108 -351q-35 -204 -217 -262q-131 -17 -188 100l-9 100q163 243 200 531q171 280 222 611q140 209 157 469q-283 -129 -570 -57q-366 198 -370 600q-39 226 100 393l31 90q140 85 213 226l109 84q115 18 208 90l257 44h136l107 -17v0z" />
    <glyph glyph-name="cedilla" unicode="&#xb8;" horiz-adv-x="1065" 
d="M686 -46q-3 -104 91 -157l40 -59l22 -98q16 -239 -186 -366l-172 -47q-179 -54 -285 73l-11 73l4 26l47 54l132 22l14 15l95 7l51 48l-3 33l-33 47l-168 7q-134 35 -128 168l22 59q78 57 109 149l44 15l355 -15l-40 -54v0z" />
    <glyph glyph-name="onesuperior" unicode="&#xb9;" horiz-adv-x="713" 
d="M547 2398l29 -44l-7 -51q-226 -287 -318 -650l-41 -29l-47 7l-22 33l4 51q64 77 76 172l26 29q12 118 84 205v43l-66 41l-7 40l29 33l88 32q53 63 132 88h40v0z" />
    <glyph glyph-name="ordmasculine" unicode="&#xba;" horiz-adv-x="792" 
d="M470 2365q166 -1 241 -146l15 -77q5 -179 -113 -310q-126 -176 -333 -219q-119 -16 -175 91l-26 102v125q94 307 391 434v0zM477 2223q-176 -88 -252 -274l-14 -77l14 -106l33 -25l88 18q190 111 245 321l-22 102l-37 30l-55 11v0z" />
    <glyph glyph-name="guillemotright" unicode="&#xbb;" horiz-adv-x="1127" 
d="M521 2360l32 -51q25 -123 -62 -208l-11 -44l-62 -62q-45 -203 -223 -307l-91 4l-40 33l-11 29q-16 132 91 215l190 340l88 80l99 -29v0zM996 2312l58 -84q5 -132 -95 -215l-7 -29l-40 -33q-67 -173 -223 -263h-103l-43 37l-11 29q-10 196 153 325q57 175 223 255l88 -22
v0z" />
    <glyph glyph-name="onequarter" unicode="&#xbc;" horiz-adv-x="2475" 
d="M2058 2333l-13 -133l-30 -26l-13 -48q-120 -218 -315 -371q-70 -152 -199 -255l-29 -68q-150 -129 -242 -303q-140 -106 -220 -263l-44 -31q-75 -163 -207 -280q-62 -170 -208 -277l-76 -125l-178 -133h-86l-52 26l-39 81q-12 189 156 303l69 117l73 55q83 183 237 307
q47 108 143 176l87 130l112 87q104 245 332 410q94 173 233 315q54 238 271 350l75 21l142 -31l21 -34v0zM716 2156l-4 -51q-256 -344 -376 -764l-26 -44l-30 -13l-56 9l-31 39l5 61q79 91 95 206q133 141 130 332l-61 31l-26 34v31l43 43q143 39 250 143h48l39 -57v0z
M2141 1147v-57q-198 -158 -298 -379l-109 -122l-26 -60l18 -13l220 8l39 52l39 117l73 82l57 -4l34 -31l-5 -42l-60 -91v-47l117 -13l47 26l26 -10l-5 -39l-68 -99q-278 21 -303 -275l-42 -31l-70 5l-16 21v81l63 135l-26 38l-319 -12l-55 60l13 61q205 190 345 436l228 232
l52 -4l31 -25v0z" />
    <glyph glyph-name="onehalf" unicode="&#xbd;" horiz-adv-x="2510" 
d="M2082 2336l-12 -135l-31 -26q-37 -149 -170 -239q-56 -112 -160 -181q-70 -154 -200 -257l-65 -113q-132 -93 -190 -239q-132 -92 -200 -238q-144 -118 -222 -292q-112 -92 -160 -234q-128 -95 -195 -238l-179 -135h-86l-53 26l-39 82q-12 191 157 305l69 117l74 56
q83 184 238 309q44 109 144 177l87 131l113 86q104 248 334 413q90 168 225 304q57 246 283 365l69 21l134 -26l35 -39v0zM750 2249l-5 -52q-253 -347 -373 -768l-34 -49l-26 -8l-57 8l-27 40l23 104l64 105l13 60q126 148 126 334l-64 35l-18 61l30 35l109 43
q63 75 156 104h49l34 -52v0zM2034 1203q162 31 278 -73l40 -88q19 -238 -179 -377q-216 -119 -386 -296v-29l44 -23l256 -13l83 -21l21 -27l-8 -65l-79 -17q-193 30 -386 9l-122 26l-48 44l18 74q207 264 504 433q158 95 151 257q-51 110 -177 56q-100 -112 -196 -31l5 75
q65 92 181 86v0z" />
    <glyph glyph-name="threequarters" unicode="&#xbe;" horiz-adv-x="2422" 
d="M2197 2343l-4 -113q-127 -278 -368 -471l-113 -175l-43 -31q-111 -193 -275 -346l-27 -61q-133 -90 -200 -240q-145 -118 -224 -293q-112 -93 -161 -235q-127 -97 -197 -241l-179 -135q-148 -26 -179 109q-15 190 158 306l69 118l61 40q91 192 253 327q47 112 145 179
l43 83l158 135q110 259 349 433q85 161 214 289l66 169l57 79l57 27l82 79l92 34l135 -26l31 -40v0zM699 2177l127 23l52 -18l17 -26l-13 -43l-74 -23l-162 -157l5 -57q134 -119 104 -297q-33 -159 -174 -235l-127 -31q-207 -10 -336 144v70l35 31h70l83 -71l100 -34
q188 23 184 209l-49 92l-69 13l-166 -26l-35 44l5 56l30 53l184 69l51 58v21l-21 13l-219 9l-17 31l8 65l88 40l140 4l140 -9l39 -18v0zM2123 1046q-252 -258 -436 -568l16 -13l223 9l31 30l74 180l48 47l57 -4l35 -35l-5 -43l-64 -105v-31q82 -57 169 9l27 -9l-5 -39
l-69 -100q-283 23 -310 -285l-40 -26h-52l-35 26v83l70 136l-22 35l-332 -5l-57 57l4 48q204 189 341 433q110 76 171 192l78 65l78 -21l5 -66v0z" />
    <glyph glyph-name="questiondown" unicode="&#xbf;" horiz-adv-x="1779" 
d="M1440 2402q139 9 177 -127l-32 -81l-53 -43q-126 -5 -163 116l21 89l50 46v0zM1320 1768q116 4 131 -113q-22 -206 -117 -392l-21 -96q-82 -190 -259 -120q-121 11 -233 -46q-159 -3 -262 -141q-77 -77 -99 -184l-21 -19q-58 -165 75 -272q116 -126 286 -92
q296 28 396 280q82 50 166 7q79 -73 39 -184q-195 -364 -636 -386q-224 -9 -390 145q-208 165 -212 425q-3 199 110 372q133 206 361 285q126 109 304 82l14 14l110 22l74 85l60 183l53 107l71 38v0z" />
    <glyph glyph-name="Agrave" unicode="&#xc0;" horiz-adv-x="2316" 
d="M1728 2887q160 -80 236 -243l32 -17l39 -64l31 -21l32 -85l-4 -66l-17 -36l-106 -38q-24 -195 21 -384q-60 -275 0 -542q-39 -235 11 -465l-21 -110v-94l10 -18q-62 -259 50 -515q44 -167 -88 -249q-88 -8 -134 70q-35 110 -32 226q-58 99 -56 211l-25 28l-46 21
l-281 -11l-15 -10l-676 -14q-213 -160 -321 -412q-105 -80 -218 -14l-25 49q-9 187 158 289q49 84 124 144q88 175 232 310l36 88q102 91 151 218q116 84 152 215q105 118 169 265q103 100 159 232l87 92q72 185 243 306l40 77l137 96q-83 148 -211 256l-43 75l15 91l81 49
h73v0zM1693 1912q-200 -155 -296 -387q-128 -117 -194 -275q-62 -55 -84 -134l-53 -49q-95 -143 -165 -300l3 -28l18 -11l144 4l18 -10h102l17 10l275 -10q200 -45 258 102v211l13 13v61l-13 14v345l13 14v131l-13 13q21 145 -22 279l-21 7v0z" />
    <glyph glyph-name="Aacute" unicode="&#xc1;" horiz-adv-x="2246" 
d="M2362 2857l-17 -100q-73 -95 -187 -132l-242 -180l-45 -13l-76 7l-21 21l-20 65l20 87q110 133 270 197q67 85 173 117h62l83 -69v0zM1919 2332q-25 -221 18 -436q-46 -308 7 -612q-25 -182 -7 -363l13 -14q-57 -280 -13 -564q42 -66 38 -144l13 -15l-3 -138l-35 -75
l-48 -32q-86 -7 -131 69q-12 193 -83 370l-3 59l-70 48l-276 -10l-14 -10l-664 -14q-209 -157 -315 -405q-103 -77 -214 -13l-24 48q-11 176 145 273q53 88 131 152q77 181 232 312l25 65q102 97 155 228q107 84 148 211q100 103 153 239q109 111 173 252l93 101l17 44
q92 79 152 184l59 55q57 147 211 190l79 -11l38 -44v0zM1578 1816q-30 -68 -90 -114q-34 -85 -104 -144q-58 -152 -187 -260q-51 -146 -163 -249q-74 -84 -103 -190l-45 -52l-17 -56l17 -38l145 4l18 -10h100l17 10l270 -10q196 -43 252 100v207l11 15q-35 203 -11 410
l11 15q15 211 -32 414l-20 8l-32 -39l-37 -21v0z" />
    <glyph glyph-name="Acircumflex" unicode="&#xc2;" horiz-adv-x="2254" 
d="M1962 2976l44 -24q87 -156 238 -251l27 -49l-17 -97l-73 -48q-155 -15 -240 139q-121 111 -272 34q-121 -113 -282 -108l-59 74q-8 126 118 170l59 14q62 62 147 77q73 83 177 118l101 -7l32 -42v0zM1916 2346v-330l14 -15q19 -208 0 -417l-14 -14v-76l14 -18
q19 -217 0 -435q36 -119 0 -236q-49 -321 56 -621q43 -163 -87 -247q-94 -8 -136 80q-2 190 -80 363l-3 59l-66 48l-282 -10l-15 -11l-668 -13q-210 -158 -317 -408q-104 -78 -215 -13l-25 48q-10 185 156 285q48 84 122 143q87 173 230 306l28 73q103 99 157 230l90 91
q36 111 118 191q88 191 230 345l25 59q93 76 139 184q159 130 244 311q73 68 167 104l80 -11l38 -45v0zM1572 1827q-42 -89 -119 -152l-20 -49l-56 -60q-38 -109 -133 -180l-17 -46l-49 -52q-21 -80 -84 -136l-20 -52l-49 -45q-97 -142 -167 -300l3 -28l18 -10l142 4l18 -15
h101l17 15h178l18 -15h76l14 15l195 24l45 66v209l14 14v55l-14 18v341l14 14v125l-14 18q21 142 -21 275l-21 7l-24 -35l-45 -25v0z" />
    <glyph glyph-name="Atilde" unicode="&#xc3;" horiz-adv-x="2272" 
d="M2353 2891q22 -133 -70 -234l-69 -42l-57 -6q-61 -43 -135 -49l-102 13l-17 17q-107 20 -192 84l-95 -3l-17 -18l-126 -42l-66 -51h-94l-60 51l-13 32l21 91q133 178 355 192q184 26 332 -77q129 -45 203 52l80 35l97 -17l25 -28v0zM1941 2347q-25 -223 18 -441l-18 -414
l11 -15q21 -219 0 -439l7 -116l14 -13q-87 -369 34 -730q28 -120 -34 -216l-53 -31l-76 17l-53 52l-14 91l-13 14l-8 119q-48 98 -52 209l-70 49l-279 -11l-17 -10l-670 -14q-213 -159 -322 -411q-103 -74 -212 -11l-25 49q-10 185 157 286q43 80 115 132q91 178 237 318
q39 137 154 231q42 127 154 212l27 73q103 104 154 241q114 113 178 258q83 65 122 161l66 60q41 89 122 150q64 156 228 209l80 -14l38 -45v0zM1589 1819q-31 -67 -91 -111q-86 -178 -226 -315q-54 -135 -158 -243l-32 -70q-108 -94 -150 -234l-27 -21l-28 -74l3 -27
l18 -11l146 4l15 -11h104l14 11q247 -39 485 28l45 63v209l11 14q-35 206 -11 415l11 14q20 214 -35 419l-18 7l-76 -67v0z" />
    <glyph glyph-name="Adieresis" unicode="&#xc4;" horiz-adv-x="2307" 
d="M1471 3087q102 6 171 -65l21 -70q17 -128 -80 -205l-84 -25q-129 1 -170 143v73l18 17q7 118 124 132v0zM2215 2993q121 -8 139 -131q18 -125 -94 -191l-45 -18q-136 -14 -160 136q-21 129 97 191l63 13v0zM1982 2351q-25 -221 17 -438l-17 -413l10 -14q21 -219 0 -437
l7 -115l14 -14q-59 -281 -14 -566q42 -67 39 -146l13 -14q29 -124 -41 -219l-49 -28q-84 -6 -128 70q-13 193 -84 372l-3 59l-69 48l-279 -10l-13 -11l-668 -13q-209 -158 -315 -407q-104 -78 -215 -13l-25 48q-10 177 146 274q53 88 132 153q72 171 218 296q37 116 133 194
q55 137 167 233l45 97l27 24q87 192 229 344l70 128q87 61 121 160q72 48 108 125l94 101q56 145 212 191l80 -14l38 -45v0zM1708 1892q-196 -144 -281 -364q-132 -124 -202 -288l-56 -67l-17 -48q-114 -105 -164 -253l-44 -53l-17 -56l17 -38l145 4l18 -10h101l17 10
l271 -10q199 -43 253 100v209l11 14q-35 204 -11 413l11 14q15 204 -28 403l-24 20v0z" />
    <glyph glyph-name="Aring" unicode="&#xc5;" horiz-adv-x="2404" 
d="M1876 2709q110 23 173 -71l15 -32l-8 -162l-31 -36l10 -22q-26 -225 18 -446l-8 -326l-10 -14q36 -268 10 -539q36 -120 0 -240q-51 -326 57 -631q45 -166 -88 -252l-78 18l-54 53l-13 92l-15 15l-7 120q-48 99 -53 209l-71 53h-78l-14 -14l-886 -21l-96 -82l-31 -56
l-40 -32l-156 -245q-105 -80 -218 -14l-26 50q-9 186 156 287q50 87 128 149q73 174 223 301q59 149 177 262l22 57q115 91 158 226l32 28q78 201 235 351q49 129 156 216l28 60q94 72 149 178l39 32l53 99l106 74q-112 139 7 284l29 21v0zM1847 2568l3 -58l51 -42h45l43 32
l11 25l-15 71l-39 25h-45l-40 -25l-14 -28v0zM1755 1922q-192 -152 -287 -375l-127 -146l-19 -49l-28 -21l-21 -57q-60 -57 -85 -134q-115 -112 -170 -263l-39 -42l-21 -64l18 -39l149 4l13 -15h107l17 15h182l13 -15h79l17 15l199 24l45 68v209l11 17l-11 75v344l11 17
q22 216 -35 422l-18 10v0z" />
    <glyph glyph-name="AE" unicode="&#xc6;" horiz-adv-x="3193" 
d="M1809 2417q230 -56 460 -10q270 -35 539 0q118 -14 140 -124q-18 -127 -148 -147q-116 23 -232 -7l-93 17q-276 11 -549 -23l17 -193l-6 -318l-11 -14l14 -175l185 -24q104 28 213 10l212 17l103 -44l38 -79q-13 -125 -148 -148q-116 32 -233 -7l-99 17l-14 -13
q-125 -24 -250 -7l-10 -11l6 -170l14 -14q-82 -334 21 -662l17 -10q171 -36 343 3q269 -34 538 0l106 -48l31 -75q-11 -126 -144 -148q-118 24 -237 -6l-89 17q-242 12 -483 -21l-127 10l-27 -20l-76 17l-51 51l-14 89l-14 14l-6 117q-48 97 -52 206l-68 48l-275 -11
l-17 -10l-658 -14q-208 -157 -315 -404q-102 -72 -209 -10l-25 47q-9 182 155 282q41 78 113 130q89 174 233 312q39 134 151 226l27 65q115 84 151 216q100 101 151 237q114 110 174 254q81 62 120 157q72 47 107 123q88 69 127 175q74 77 174 110v0zM1583 1848
q-32 -68 -92 -114q-90 -178 -230 -318q-44 -131 -147 -230l-31 -68q-139 -134 -203 -323l4 -27l17 -10l144 3l14 -10h102l15 10q241 -38 476 27l45 62v206l10 14q-35 201 -10 408l10 14q20 210 -35 410l-16 8l-73 -62v0z" />
    <glyph glyph-name="Ccedilla" unicode="&#xc7;" horiz-adv-x="2149" 
d="M1706 2345q181 -81 257 -266l51 -49l30 -55q17 -95 -59 -153l-88 -3l-84 58q-58 244 -305 251q-280 21 -474 -202l-144 -149l-19 -49l-72 -82l-20 -51l-35 -39q-21 -72 -78 -124q-22 -78 -81 -137q-93 -167 -111 -357l-19 -39q-42 -178 3 -353l19 -20q20 -139 124 -227
l65 -24h162l228 49q131 112 305 91l55 -68l-32 -88q-199 -199 -481 -260l-52 -49l-16 -57l46 -69q145 -90 175 -263l-6 -52q-82 -206 -280 -279l-146 -14q-125 -14 -225 59l-32 42l3 88l82 74l94 4q94 -52 178 32l20 46q-48 165 -267 114l-78 75l4 87l26 23l26 52l52 45v75
l-192 156l-30 84l-45 56l-19 106l-13 17q22 158 -33 302l53 257l84 299l55 65l10 42q99 116 153 257l32 32l19 52l159 224l69 75l42 23l36 49l45 18q180 185 433 215l100 46h46l195 -62v0z" />
    <glyph glyph-name="Egrave" unicode="&#xc8;" horiz-adv-x="2263" 
d="M1311 3105q196 19 289 -194l29 -58l33 -19l40 -65l37 -26l33 -81l-11 -91l-62 -44l-37 -4q-165 22 -237 176l-52 44l-29 55q-93 60 -135 161l18 95l84 51v0zM2101 2377l22 -69l-26 -103l-76 -40q-103 7 -202 -29h-102l-66 -22l-398 22q-168 -27 -212 -201l-19 -70
l-58 -88q-7 -99 -59 -183v-69l15 -33l33 -18q91 10 179 -19q118 -14 230 19l209 -8l73 -62l18 -88q-59 -161 -263 -146l-369 18l-15 15h-110l-14 -15q-126 0 -172 -120q-77 -159 -103 -333q-104 -156 -91 -337l29 -44q206 -63 421 -25l14 15h30l14 -15l366 15
q94 -49 91 -154q-20 -125 -153 -124l-402 -8l-19 -14q-208 -35 -420 -26l-238 7l-84 48l-33 51q-13 176 91 326l22 102l59 99l7 66l55 164l18 18l8 59q83 303 215 589l41 208l40 55l44 161q65 75 77 176q82 92 102 219l80 55q106 14 205 -22q132 -22 260 11q215 -30 428 22
l164 -15l44 -40v0z" />
    <glyph glyph-name="Eacute" unicode="&#xc9;" horiz-adv-x="2228" 
d="M2061 2919l-18 -106l-77 -77q-147 -56 -256 -172q-73 -22 -121 -80l-47 -15l-81 7l-22 22l-21 70l21 91q117 141 286 209q71 90 183 124h65l88 -73v0zM2087 2352l18 -66l-18 -88l-51 -43l-99 -8l-15 -14q-136 -27 -274 -26l-15 -15h-29l-15 15l-354 7l-128 -51
q-75 -98 -103 -219q-87 -77 -84 -205q-64 -82 -18 -168q223 -76 442 -15q166 47 275 -62l25 -99q-59 -162 -263 -146q-104 -8 -205 22h-164l-15 11q-208 39 -296 -132q-18 -105 -73 -197q-10 -132 -81 -242l-44 -179l4 -55l29 -44q206 -63 421 -25l14 14h30l14 -14l366 14
q94 -48 91 -153q-20 -125 -153 -124l-402 -8l-19 -14q-208 -35 -420 -26l-238 7l-84 48l-33 51q-13 176 91 326l22 102l59 99l7 65l55 165l18 18l8 59l102 318l15 11q24 141 98 260l41 208l40 55l44 161q65 74 77 175l40 52l62 171l80 52q96 5 191 -8l14 -14l150 -8l91 8
l19 14h135l37 -14l14 14l223 8l19 11l164 -15l48 -44v0z" />
    <glyph glyph-name="Ecircumflex" unicode="&#xca;" horiz-adv-x="2254" 
d="M1780 3010l51 -29q90 -163 249 -263l29 -51l-18 -103l-77 -51q-162 -14 -252 146q-134 122 -300 33q-117 -120 -282 -109l-59 76q-12 123 107 172l76 22q66 65 154 81q77 87 187 124l102 -4l33 -44v0zM2087 2359l18 -62l-25 -102l-77 -40q-103 7 -201 -30h-106l-62 -21
l-399 21q-168 -26 -212 -201l-19 -69l-58 -88q-7 -99 -59 -183v-69l15 -33l33 -18q92 10 179 -19q118 -14 231 19l208 -8l73 -62l19 -91q-73 -157 -264 -143l-494 33q-135 -17 -186 -135q-77 -159 -103 -333q-104 -156 -91 -337l29 -44q215 -73 436 -14q198 -56 409 0
q96 -44 92 -150q-21 -125 -154 -124l-402 -8l-19 -14q-208 -35 -420 -26l-238 7l-84 48l-33 51q-13 176 91 326l22 102l59 99l7 66l55 164l18 18l8 59q83 303 215 589l41 208l40 55l47 168l33 44l41 124q82 93 102 220l81 55q105 14 204 -22q130 -23 256 11q217 -31 432 22
l165 -19l47 -44v0z" />
    <glyph glyph-name="Edieresis" unicode="&#xcb;" horiz-adv-x="2246" 
d="M1199 3026q107 6 179 -69l22 -74q20 -216 -175 -241l-44 4l-22 22l-37 7l-73 117v77l18 18q9 124 132 139v0zM1982 2927q127 -9 146 -139q19 -106 -66 -175l-80 -44q-143 -15 -168 143q-22 136 102 201l66 14v0zM1974 2408l81 -11l40 -44l15 -55l-30 -102l-58 -37
q-388 -91 -783 -36q-264 -49 -296 -373q-7 -90 -55 -165l11 -95l37 -26q93 11 183 -18q115 -14 226 18l209 -7l66 -51l29 -102q-71 -157 -267 -143l-369 18l-15 15h-110l-14 -15q-117 1 -165 -106q-19 -113 -80 -208q-10 -132 -81 -242q1 -94 -44 -179l4 -55l26 -40
q215 -79 438 -18q199 -56 410 0q110 -52 88 -176q-32 -103 -147 -98l-405 -8l-19 -14q-208 -35 -420 -26l-238 7l-84 48l-33 51q-13 176 91 326l22 102l59 99l7 65l55 165l18 18q32 253 161 476q21 120 81 226l22 154l40 51l47 172l33 44l41 124l43 59q5 165 143 212
q233 -59 461 -7l172 -11l14 11l227 7l15 15h80l18 -15v0z" />
    <glyph glyph-name="Igrave" unicode="&#xcc;" horiz-adv-x="1532" 
d="M815 3035q182 18 269 -180l94 -132l35 -24l30 -75l-10 -85l-57 -40l-35 -4q-154 20 -221 163l-47 41l-27 51q-86 56 -125 150l16 88l78 47v0zM1151 2410q84 -1 109 -74l-4 -98q-53 -89 -60 -191q-65 -87 -89 -194q-71 -85 -88 -197l-54 -88q-29 -188 -133 -346
q-39 -217 -149 -412q-14 -114 -75 -213l-20 -92l-31 -41q-19 -133 -102 -238q-14 -113 -98 -193l-44 -20l-75 4l-48 60q-14 184 116 327l17 64l37 57q11 118 75 215l44 187l27 33q11 114 78 207l21 112q62 69 75 160q67 91 81 204l48 78l23 109q74 105 106 230l20 21
q8 101 68 184q8 109 125 145v0z" />
    <glyph glyph-name="Iacute" unicode="&#xcd;" horiz-adv-x="1647" 
d="M1836 2938l-17 -99l-72 -72q-137 -52 -239 -160q-67 -20 -112 -75l-45 -13q-106 -26 -115 91l31 103q108 120 255 177l48 51l123 65h61l82 -68v0zM1212 2412q80 2 112 -74l-3 -99q-58 -106 -75 -225q-62 -69 -75 -161l-57 -84q-14 -115 -89 -205q2 -105 -62 -184
q-10 -92 -72 -164l-23 -105l-18 -17q-15 -125 -85 -225l-47 -171l-17 -16l-55 -184l-31 -41l-44 -147q-72 -87 -92 -201l-64 -85l-45 -21l-75 4l-47 61q-15 183 115 327l17 64l38 59q11 118 75 215l41 180l31 41q12 108 75 198q30 203 150 375l41 140l37 50q26 200 149 365
q10 103 72 184q14 113 123 146v0z" />
    <glyph glyph-name="Icircumflex" unicode="&#xce;" horiz-adv-x="1611" 
d="M1412 2927l44 -27q84 -147 228 -239l27 -48q16 -108 -88 -142q-151 -15 -235 136q-127 112 -283 31q-109 -113 -263 -103l-54 72q-8 124 115 167l58 13l86 59l44 9q79 88 187 123l103 -10l31 -41v0zM1173 2416q83 2 112 -75l-3 -99q-60 -104 -75 -225q-61 -68 -75 -160
l-58 -85q-13 -115 -89 -202q-27 -200 -140 -375q-31 -174 -122 -330q-18 -122 -78 -229q-8 -104 -72 -183l-41 -137q-73 -86 -92 -201l-65 -85l-44 -21l-75 4l-48 61q-15 184 116 327l4 31q74 107 88 239q75 115 82 256l27 30q12 105 71 191l45 167q62 68 75 160
q64 85 75 194l38 52l44 160l30 37q21 92 76 167l40 143l31 41q15 112 123 147v0z" />
    <glyph glyph-name="Idieresis" unicode="&#xcf;" horiz-adv-x="1559" 
d="M893 2910q106 7 172 -72l14 -60q17 -126 -78 -201l-81 -24q-127 1 -163 139q-15 114 64 193l72 25v0zM1619 2818q118 -9 135 -129q20 -120 -91 -186l-44 -18q-132 -13 -156 133q-21 126 95 187l61 13v0zM1280 2343q22 -103 -41 -176l-37 -146q-68 -77 -85 -180l-27 -27
q-24 -137 -109 -241l-20 -102l-17 -20q-22 -116 -88 -214q-44 -219 -153 -417q-15 -115 -75 -214l-20 -91q-64 -81 -75 -187l-57 -92q-14 -114 -99 -193l-44 -20l-74 3l-48 61v95q53 190 170 353q10 117 74 214l41 176l31 41q9 115 78 210l20 112q62 69 75 159q66 98 84 215
q67 88 78 199l55 92q12 99 74 179l24 99l71 133l82 51l61 -14l51 -58v0z" />
    <glyph glyph-name="Eth" unicode="&#xd0;" horiz-adv-x="2237" 
d="M1376 2408q217 23 379 -110l167 -181l3 -31q117 -138 145 -312l-11 -396l-21 -96l-17 -18l-50 -226q-58 -76 -71 -174q-114 -141 -173 -311q-103 -104 -173 -233q-196 -236 -495 -269l-15 -14l-148 -8l-15 -10q-155 35 -304 -7l-297 25l-15 14q-105 5 -127 124l15 158
l39 61q9 96 73 170q16 119 79 223q5 131 81 237l21 124l-14 21l-78 18l-70 67q-36 98 34 166l64 32l32 -10l135 3l56 209q131 176 167 392q67 84 77 195l78 113l103 47l293 -11l53 18v0zM1402 2135q-72 4 -135 -28q-115 22 -202 -50q-28 -90 -88 -163q-35 -160 -134 -283
l-43 -159q288 -59 584 -7q121 -15 144 -127q-12 -133 -152 -149q-120 26 -240 -10q-219 53 -443 10l-32 -61q5 -90 -41 -169q-7 -169 -92 -315l-47 -205l11 -96l46 -42l71 -11q125 44 258 25q106 60 230 57q216 75 347 283q122 145 180 325l32 43q17 127 85 233l42 244
l15 18l-15 21v99l15 15v38l-15 18q2 173 -124 297q-103 130 -257 149v0z" />
    <glyph glyph-name="Ntilde" unicode="&#xd1;" horiz-adv-x="2792" 
d="M2399 2994v-109l-87 -155q-128 -72 -274 -95q-186 14 -336 125q-190 9 -327 -125h-102l-64 57l-16 34q6 129 125 200q82 24 144 82q198 52 394 0q126 -107 276 -52l45 48l90 38l102 -18l30 -30v0zM1171 2342l31 -170q76 -98 98 -222l22 -27q14 -141 98 -252
q13 -162 83 -309q-4 -167 82 -301l9 -49l97 -147l22 -86l80 -87l22 3q134 224 189 479q75 129 82 278q105 148 106 321q80 114 86 260l50 75q-2 163 116 275l105 8l57 -42l34 -72l-15 -105l-33 -53q-19 -109 -77 -203q-4 -132 -71 -241q-15 -201 -105 -381l-23 -116l-38 -68
l-30 -169q-67 -82 -79 -185l-41 -64q-26 -186 -121 -347l-7 -79q-53 -82 -57 -181l-41 -67l-46 -16q-151 -10 -237 114q16 202 -116 353q-19 116 -83 215l-4 52q-89 170 -102 362l-37 53l-45 185l-34 45l-106 312l-34 30q-115 -23 -132 -142l-60 -95q-12 -106 -83 -188
l-41 -222q-24 -159 -121 -279q-17 -141 -87 -264q-3 -137 -82 -248l-41 -173q-67 -137 -208 -106l-41 30l-38 64q-10 92 53 162l26 148l56 86l27 101l52 76q30 288 171 546q5 110 64 203q17 164 101 305l26 140l57 75q17 133 83 249q0 162 157 211l121 -16l53 -44v0z" />
    <glyph glyph-name="Ograve" unicode="&#xd2;" horiz-adv-x="2404" 
d="M1217 2983q174 14 259 -174l92 -128l32 -23l30 -72l-10 -82l-56 -39l-32 -4l-83 20q-125 85 -200 220q-84 58 -123 151l16 85l75 46v0zM1502 2393q145 28 259 -56l36 -7l72 -49l40 -10l91 -85l141 -170q16 -109 69 -207l7 -153l10 -14v-242q3 -127 -62 -230l-40 -163
q-51 -65 -59 -148q-57 -68 -79 -157q-130 -230 -354 -374l-88 -88q-153 -61 -288 -151l-292 -95q-75 28 -154 19q-288 67 -472 292l-53 36q-94 121 -115 272l-29 56l-23 174q-27 436 239 803q52 52 72 124q87 87 145 197q90 60 153 147q125 54 223 145q136 18 253 91l298 43
v0zM1230 2098q-78 -66 -180 -89q-88 -37 -148 -108l-26 -7q-252 -220 -393 -530q-17 -124 -85 -230q5 -110 -27 -216q-31 -252 131 -433q161 -198 416 -223l119 7q104 56 222 69q90 89 207 124l88 76q48 106 151 174q19 74 73 127l9 43q72 72 99 171l19 19q40 109 30 226
l36 96q28 181 -36 350l-16 134l-24 63l-35 32q-70 141 -236 157h-181l-213 -32v0z" />
    <glyph glyph-name="Oacute" unicode="&#xd3;" horiz-adv-x="2466" 
d="M2034 2901l-14 -89l-72 -75q-124 -47 -216 -144l-89 -47l-19 -26l-60 -22l-71 6l-40 82q7 116 121 174l50 22l45 47l63 26l52 56l109 55h62l79 -65v0zM1709 2396q67 -53 151 -69l49 -36l26 -3l91 -79l155 -187q4 -108 69 -203l6 -157l10 -14v-239q5 -128 -62 -233
q-18 -145 -95 -272l-7 -46l-23 -26q-140 -371 -495 -586q-152 -60 -288 -151l-292 -95q-75 28 -154 20q-288 66 -472 291l-53 36q-93 121 -115 272l-28 56l-24 174v150l40 240q50 59 59 137q58 175 173 315q110 257 338 430l223 144q135 23 252 95l230 23l13 13l56 7l167 -7
v0zM1269 2108q-80 -66 -179 -92q-91 -33 -148 -109l-26 -6l-165 -164l-228 -363q-17 -126 -86 -234q5 -110 -27 -216q-12 -183 66 -351q89 -133 220 -222q124 -65 262 -82l118 6q104 56 223 69q112 99 249 154q43 32 62 82l135 138q19 74 72 127l19 63q68 61 89 151l20 19
q39 111 29 230l36 92q28 181 -36 350l-16 138l-27 65l-32 26q-61 143 -223 148l-13 13h-180l-16 -13l-198 -19v0z" />
    <glyph glyph-name="Ocircumflex" unicode="&#xd4;" horiz-adv-x="2510" 
d="M1823 2907l46 -27q69 -134 197 -210l56 -73q11 -104 -88 -138q-146 -13 -227 132q-121 108 -271 30q-105 -108 -253 -100l-56 70q-8 120 112 161l55 13q59 59 138 73q71 78 169 112l92 -4l30 -39v0zM1569 2413q291 19 487 -195l155 -184q16 -110 70 -208l6 -154l10 -16
v-241l-30 -171q-56 -82 -59 -185l-69 -152l-3 -36q-53 -61 -70 -141q-259 -443 -744 -633l-293 -95q-76 29 -155 20q-290 66 -474 293l-53 36q-97 120 -116 270q-61 107 -52 234q-27 417 221 771q60 72 92 161l155 208q88 48 144 135l225 144q135 24 253 96l231 23l13 13
l56 7v0zM1295 2117q-61 -60 -144 -73q-262 -126 -426 -366l-180 -299q-17 -125 -86 -231q6 -111 -27 -217q-31 -267 149 -455q161 -182 401 -204l119 7q105 56 224 69q90 89 207 125l93 79l13 30q171 121 217 313q164 177 149 418l36 96q29 180 -36 349l-16 138l-24 63
l-36 32q-70 142 -237 158h-181l-215 -32v0z" />
    <glyph glyph-name="Otilde" unicode="&#xd5;" horiz-adv-x="2475" 
d="M2270 2783q20 -125 -65 -219l-66 -39l-52 -6q-57 -40 -127 -47l-95 14l-16 16q-100 18 -179 78l-89 -3l-16 -16l-118 -40l-61 -49h-89l-55 49l-12 30l19 85q124 167 332 179q172 25 310 -71q121 -42 189 48l75 33l92 -16l23 -26v0zM1549 2395q144 26 257 -59l43 -10
l65 -46l40 -9l97 -92l134 -163q15 -108 69 -205l6 -154l10 -12v-242q3 -126 -62 -229q-19 -145 -94 -273l-4 -37q-57 -68 -79 -156q-129 -229 -351 -371l-89 -89q-152 -60 -286 -150l-291 -94q-75 28 -153 19q-287 66 -470 290l-52 36q-93 121 -115 271l-28 56l-24 172
q-24 434 239 799q54 57 78 134q82 82 133 183q92 62 157 150q73 64 163 95l59 48q113 15 209 79q130 46 270 39l69 20v0zM1278 2101q-61 -59 -143 -72q-107 -42 -183 -127l-26 -6q-123 -82 -186 -209l-26 -20l-62 -114l-26 -23l-20 -52q-80 -76 -88 -190l-68 -150
q5 -109 -27 -215q-12 -182 66 -349q88 -132 218 -221q124 -65 261 -82l118 7q103 55 221 68q90 89 206 124l84 72q53 106 154 176q19 74 72 128l9 42q72 72 98 169l20 20q39 108 30 225l35 94q28 181 -35 350q17 149 -85 241l-20 42q-161 148 -385 101l-212 -29v0z" />
    <glyph glyph-name="Odieresis" unicode="&#xd6;" horiz-adv-x="2448" 
d="M1289 2982q103 7 168 -70l14 -58q16 -122 -76 -195l-80 -23q-123 0 -161 135v69l16 17q8 111 119 125v0zM1994 2893q110 1 135 -125q19 -114 -86 -178l-49 -20q-128 -12 -152 129q-20 125 96 181l56 13v0zM1694 2402q68 -53 152 -69l49 -36l26 -3l86 -73l162 -194
q4 -109 69 -205l6 -158l10 -13v-244q4 -127 -62 -231q-18 -146 -96 -273l-7 -46l-22 -26q-141 -373 -498 -590q-153 -60 -290 -151l-293 -96q-75 29 -155 20q-289 67 -474 293l-53 36q-94 122 -116 273l-29 56l-23 175v152l40 241q51 63 62 144q28 103 99 175q16 78 72 135
l40 88q85 85 141 192q93 62 158 151l225 145q135 24 253 96l231 23l14 13l56 6l167 -6v0zM1252 2113q-80 -66 -180 -93q-91 -33 -149 -109l-26 -6l-161 -161q-114 -114 -162 -261q-81 -77 -89 -191l-69 -152q6 -111 -27 -217q-12 -184 66 -353q89 -133 221 -223
q125 -65 263 -82l119 6q105 56 224 70q113 99 251 154q43 30 62 79l135 142q19 75 73 128l19 63q69 61 90 151l19 20q40 111 30 230l36 93q28 182 -36 353l-16 138l-30 69l-30 23q-61 143 -224 148l-13 13h-181l-16 -13l-199 -19v0z" />
    <glyph glyph-name="multiply" unicode="&#xd7;" horiz-adv-x="1708" 
d="M1395 1358q112 9 140 -109l-20 -112q-99 -74 -159 -179l-39 -19l-19 -35l-82 -66l-15 -35q-172 -78 -164 -241q22 -91 90 -155q34 -116 128 -195l23 -57l-15 -105l-90 -78q-229 37 -322 272l-85 81l-30 12q-210 -87 -308 -287q-125 -91 -244 0l-23 73q11 340 364 528
q44 186 -85 330q-87 147 8 276l27 23l97 -19l74 -70l74 -148l30 -23l28 -54l43 -36h35l81 31l330 326l66 51l62 20v0z" />
    <glyph glyph-name="Oslash" unicode="&#xd8;" horiz-adv-x="1955" 
d="M1647 2426l4 -93q-57 -108 -74 -226q-63 -75 -82 -171l-44 -65l-23 -97q186 -82 268 -258l29 -27l52 -206q-3 -357 -204 -656q-127 -84 -181 -216q-53 -73 -132 -116l-19 -36q-124 -50 -213 -149l-81 -38l-20 -23l-187 -54q-39 -202 -155 -366q-11 -143 -136 -203
q-86 -21 -116 61q-11 176 111 310l15 62l36 55l19 84q-169 28 -248 196l-3 29q-131 206 -75 462l9 100q54 85 69 184l90 168l32 26l46 78l219 248q96 120 229 188l19 26l58 26l52 49q73 10 132 54l74 3l40 132l32 43q15 89 71 161l39 136l29 39q12 107 116 135l59 -14
l44 -41v0zM1280 1331q-59 -63 -72 -151q-116 -161 -149 -365l-16 -20q-8 -97 -68 -174q-23 -131 -96 -246l6 -6q150 64 233 207l51 38l27 49q113 69 135 193q85 124 116 271v98q2 176 -132 217l-17 -20l-18 -91v0zM1015 1409q-92 -63 -136 -162l-42 -26l-13 -29l-132 -119
q-158 -205 -191 -459q-4 -135 48 -262l53 -51l21 10q13 115 81 206l23 114q56 67 71 154q85 125 103 278l30 39q12 102 70 187l27 98v22h-13v0z" />
    <glyph glyph-name="Ugrave" unicode="&#xd9;" horiz-adv-x="2563" 
d="M1435 3057q163 -80 241 -249l33 -18l39 -65l37 -26l29 -79l-4 -72l-18 -36l-83 -29l-90 22q-146 93 -228 249q-88 61 -129 158l15 94l83 51h75v0zM2343 2354q13 -126 -46 -242q9 -117 -40 -227l-18 -173q-63 -90 -76 -202l-40 -65q-7 -120 -79 -216q-41 -205 -158 -375
l-62 -277l-14 -18v-72l14 -14l22 -109l18 -18l15 -61l43 -57q-3 -152 -159 -185l-83 26l-76 83l-61 198l-28 40q-99 -2 -174 -79l-144 -116q-97 -25 -173 -93l-32 -4l-90 -61l-87 -22q-302 -52 -512 169q-110 120 -155 274l18 231q12 185 112 335q7 119 79 216l22 101
q67 90 90 198l47 69q14 99 83 173q23 183 137 335l18 105l65 118q101 69 190 0l15 -32q8 -192 -108 -346q-9 -75 -55 -134l-28 -115q-71 -78 -94 -184l-39 -54q-44 -201 -155 -378q-8 -153 -98 -277l-7 -177l-15 -15v-100q58 -149 192 -242q116 -35 209 50q207 29 335 203
l210 147l255 241q22 80 79 142l22 96q121 173 155 386l18 18q55 141 65 292q101 208 123 444l50 83l83 35l97 -25l25 -43v0z" />
    <glyph glyph-name="Uacute" unicode="&#xda;" horiz-adv-x="2571" 
d="M2008 2934l-17 -104q-75 -97 -193 -136l-250 -185l-46 -14l-79 7l-22 21l-21 68l21 90q115 137 279 203q69 88 179 121h64l85 -71v0zM2373 2342q14 -126 -46 -240q9 -116 -40 -225l-18 -175q-62 -89 -75 -200l-39 -61q-8 -120 -78 -218q-41 -203 -158 -371l-60 -275
l-15 -18v-71l15 -15l21 -107l18 -18l14 -61l44 -56q-3 -151 -158 -183l-82 25l-75 82l-61 197l-28 39q-98 -2 -172 -78l-143 -115q-96 -25 -171 -92l-32 -4l-89 -61l-86 -21q-300 -52 -508 168q-109 118 -153 271q-17 171 50 325l25 143l54 93q5 119 78 214l21 100
q67 89 89 196q58 65 69 151l60 89q21 188 139 343q-1 121 54 229q96 89 190 20q68 -199 -47 -389l-22 -22l-82 -249q-72 -75 -93 -179l-39 -56q-43 -201 -153 -376q-8 -151 -97 -275l-7 -175l-15 -14v-100q57 -148 190 -240q115 -35 207 50q206 29 333 201q153 62 242 192
q271 148 318 432q119 170 153 379l19 21q54 138 64 286q102 222 133 468l56 68l65 21l96 -21l25 -42v0z" />
    <glyph glyph-name="Ucircumflex" unicode="&#xdb;" horiz-adv-x="2519" 
d="M1790 2993l35 -19q80 -155 229 -238l46 -69l-7 -82l-86 -67q-159 -16 -247 142q-132 118 -296 33q-114 -119 -275 -108l-57 75q-8 130 122 175q87 16 150 76l47 9q81 96 195 129l97 -4l47 -52v0zM2322 2339q12 -126 -46 -240q8 -116 -40 -225l-18 -171q-63 -89 -75 -200
l-39 -65q-7 -119 -79 -214q-44 -203 -157 -374l-61 -272l-14 -18v-71l14 -15l22 -107l17 -18l15 -61l43 -56q-3 -151 -157 -183q-154 23 -175 175l-22 28l-21 101l-29 39q-97 -2 -172 -78l-142 -115q-96 -25 -172 -92l-32 -4l-89 -61l-86 -21q-299 -52 -507 168
q-107 119 -154 271l18 228q8 179 107 322q9 124 83 225q9 109 78 196q13 96 79 168l21 79l61 89q21 188 139 343q-1 122 54 229q96 91 189 21l14 -43l-7 -221q-116 -184 -157 -393q-71 -78 -93 -183l-39 -53q-25 -155 -118 -282q-49 -109 -61 -229l-71 -139l-7 -175l-15 -14
v-100q57 -148 190 -240q95 -36 164 33q240 39 393 231l46 22l144 111l253 239q21 79 78 140l22 96q118 174 153 382l19 18l182 718l53 89l82 36l96 -21l26 -43v0z" />
    <glyph glyph-name="Udieresis" unicode="&#xdc;" horiz-adv-x="2501" 
d="M1193 2993q105 6 176 -68l22 -72q18 -132 -83 -212l-85 -25q-135 1 -176 147v76l18 17q7 122 128 137v0zM1961 2896q125 -9 144 -136q19 -105 -64 -173l-80 -43q-139 -15 -165 140q-21 134 100 198l65 14v0zM961 2365v-255q-117 -184 -159 -394q-70 -79 -93 -184l-39 -54
q-25 -156 -119 -283q-49 -110 -61 -229q-130 -191 -93 -431q62 -165 219 -251l86 7l50 36q242 40 395 233l46 22l145 111l243 226q95 110 111 251q119 175 154 384l19 18q53 139 64 287q103 222 133 470l64 69h152l28 -44q14 -125 -46 -240q9 -117 -40 -226l-18 -172
q-63 -89 -76 -201l-39 -65q-7 -120 -79 -215q-44 -205 -158 -377l-61 -272l-14 -18v-72l14 -15l22 -108l18 -17l14 -61l44 -57q-3 -151 -158 -184q-155 24 -176 176l-22 28l-21 102l-29 39q-98 -2 -173 -79l-143 -115q-96 -25 -172 -93l-32 -4l-90 -61l-86 -21
q-301 -52 -510 169q-107 119 -154 272q-15 172 50 327l7 82q78 120 93 262q68 92 80 205q61 79 78 179q70 83 91 190l50 68l21 112q67 90 94 200l17 15q-34 217 137 291h82l40 -33v0z" />
    <glyph glyph-name="Yacute" unicode="&#xdd;" horiz-adv-x="1928" 
d="M1384 2801l-15 -89l-64 -64q-122 -47 -213 -143l-43 -15l-58 -52l-39 -12q-95 -22 -104 82q17 135 155 183l43 43l58 24l42 46l110 58h56l72 -61v0zM1659 2399q78 16 107 -50l-28 -82q-165 -143 -275 -332l-75 -79l-43 -92q-79 -73 -113 -180q-95 -82 -138 -195
l-124 -128l-16 -43l-52 -57l-15 -52l-112 -150q-15 -91 -70 -165l-22 -122q-54 -64 -64 -146l-49 -76q-5 -137 -70 -256l-15 -80l-85 -88l-70 -28l-70 25l-31 49l6 122q69 133 86 283q182 303 197 656q81 131 -21 265q-6 120 -70 220l-12 143l-46 92l-85 277l2 88l37 43h74
l76 -36l21 -46l34 -28q24 -116 88 -216l19 -110l15 -15l21 -88l12 -13l18 -119l68 -128l33 -28l61 28q48 100 135 171q30 75 87 131l28 61l40 40q22 64 73 109q37 126 140 205q54 116 168 186q58 36 125 34v0z" />
    <glyph glyph-name="Thorn" unicode="&#xde;" horiz-adv-x="2166" 
d="M1455 2323q26 -204 -104 -364l-89 -324l54 -28q377 13 592 -274l62 -213q29 -270 -62 -520q-185 -331 -532 -483l-204 -57l-17 -16q-237 42 -441 -58q-156 -165 -173 -400q-64 -74 -49 -185q-72 -102 -90 -225l-37 -57l-89 -58l-94 13l-74 82q-19 195 106 351
q18 302 181 541l32 138q26 186 127 337q9 146 94 262q17 131 86 241q1 163 90 290q32 152 126 275q3 90 54 168l20 122q65 74 50 185q76 124 110 265l107 74l85 -8l79 -74v0zM1225 1296q-140 2 -192 -127q-21 -128 -86 -242l-25 -159l-69 -114q7 -119 -54 -218l29 -44
l62 -30h126l17 17q325 0 536 255q104 115 106 270v134q8 135 -102 196q-167 75 -348 62v0z" />
    <glyph glyph-name="germandbls" unicode="&#xdf;" horiz-adv-x="2254" 
d="M1457 2399q314 37 499 -214q81 -87 113 -201q38 -268 -117 -492q-90 -76 -125 -189q39 -127 125 -230l4 -39q108 -187 56 -412q-73 -271 -310 -402l-60 -69q-115 -19 -198 -101l-92 -12l-32 -24q-221 -35 -424 48q-142 49 -100 190l56 137q120 40 230 -57q152 -53 282 37
q195 122 269 338q54 178 -81 286l-127 44q-290 45 -573 -3q-144 -148 -153 -355l-61 -113q5 -134 -64 -246l-53 -246l-15 -20l-36 -221l-90 -185l-39 -25q-127 -22 -205 64l-29 85l16 129l84 153l5 45q84 121 109 265l24 37q0 165 84 306q8 160 92 290l49 213l41 65
q-8 189 88 342l44 185l44 56l24 126l41 117l25 24l44 165l112 80l424 29v0zM1364 2045q-193 42 -287 -114q-10 -97 -64 -176q-10 -134 -73 -251l8 -72l89 -57l322 29q204 43 322 217l93 193l-12 105l-88 105q-141 56 -295 32l-15 -11v0z" />
    <glyph glyph-name="agrave" unicode="&#xe0;" horiz-adv-x="1647" 
d="M1219 2348q193 13 288 -194l33 -58l33 -18l40 -66l33 -22l33 -88l-4 -69l-18 -36l-84 -30l-91 22q-148 95 -230 252q-90 62 -132 161l15 95l84 51v0zM1211 1369q146 6 238 -98l36 -84l-7 -198l-15 -14q-4 -151 -80 -281l-26 -205l-14 -18v-99l73 -157l-26 -98
q-118 -139 -259 -44q-103 172 -289 106q-147 -118 -328 -172q-249 -19 -355 208q-65 101 -62 216l4 73l73 157q133 241 394 270q247 5 420 -183l85 -18l36 33q54 120 62 252q-47 56 -120 47l-15 -14h-117q-110 38 -110 135l19 58l91 66l66 7q103 65 226 55v0zM422 460
l18 -95l63 -33l98 22l106 88l22 69v18l-66 51l-139 8l-29 -19l-73 -109v0z" />
    <glyph glyph-name="aacute" unicode="&#xe1;" horiz-adv-x="1655" 
d="M1648 2063l-18 -106q-77 -100 -198 -139l-255 -190l-48 -14q-118 -22 -124 98l22 92q116 140 285 208q71 90 183 124h65l88 -73v0zM1206 1369q156 0 248 -117l22 -70q12 -300 -120 -573q-66 -212 55 -395l-26 -98q-128 -144 -274 -37q-44 103 -146 117l-139 -22
q-142 -115 -318 -168q-251 -21 -358 208l-58 150l-4 66l4 73q78 260 310 383q215 99 420 -18l157 -120l55 -19l44 8l48 80l40 194q-55 69 -139 36l-132 8l-84 76l-7 66l15 44l84 58l73 11q98 75 230 59v0zM413 459v-51l18 -44l63 -36q128 19 211 120l15 62l-11 29l-55 41
l-139 7l-40 -33l-62 -95v0z" />
    <glyph glyph-name="acircumflex" unicode="&#xe2;" horiz-adv-x="1629" 
d="M1262 2053l54 -33q91 -163 249 -263l29 -51q17 -116 -95 -153q-162 -15 -252 146q-133 121 -300 33q-117 -121 -281 -110l-58 77q-9 121 105 172q99 16 169 84l51 11q82 91 197 131l102 -4l30 -40v0zM1210 1377q154 6 249 -116l25 -70l-7 -193l-15 -19q-4 -151 -80 -281
l-25 -205l-15 -14v-102l73 -154l-22 -98q-121 -139 -263 -44q-103 173 -289 106q-147 -118 -328 -172q-249 -19 -355 208l-58 150l-4 66l4 73q78 260 310 383q215 98 420 -18l157 -121l41 -3l14 -15l37 4l29 29l33 88l29 142l-7 33l-81 33l-164 -11q-121 41 -106 150
q32 119 172 113l18 18l110 22l14 15l84 3v0zM421 468v-51l18 -44l63 -37q177 17 226 183v15l-66 54l-139 8l-40 -33l-62 -95v0z" />
    <glyph glyph-name="atilde" unicode="&#xe3;" horiz-adv-x="1655" 
d="M1640 2005q23 -140 -73 -245l-73 -44l-59 -7q-64 -45 -142 -52l-106 15l-18 18q-112 20 -201 88l-99 -4l-18 -18l-139 -47l-62 -52h-98l-63 55l-14 33q10 127 120 194q181 133 406 102l113 -22q124 -103 270 -51l44 47l84 37l102 -18l26 -29v0zM1224 1362q154 4 248 -117
l26 -70l-8 -197l-14 -15q-5 -151 -81 -281l-25 -204l-15 -15v-102l73 -154l-22 -98q-115 -134 -252 -52q-108 180 -299 114q-149 -115 -329 -172q-249 -17 -358 208l-58 150l-4 66l4 73q78 260 310 383q218 100 424 -22l171 -124l77 -7l29 29q53 118 62 249l-14 22l-73 25
l-165 -11q-111 35 -113 132q30 134 179 131l18 18l110 22l15 15l84 4v0zM435 452l14 -95l66 -37l95 26l106 84l22 73l-11 29l-51 41l-143 7l-40 -33l-58 -95v0z" />
    <glyph glyph-name="adieresis" unicode="&#xe4;" horiz-adv-x="1576" 
d="M634 2180q107 6 179 -69l22 -73l-29 -161l-77 -66l-69 -15q-137 4 -176 150v77l55 120l95 37v0zM1416 2081q127 -9 146 -138q19 -131 -99 -201l-47 -19q-143 -14 -168 143q-22 136 102 201l66 14v0zM1178 1329q128 -12 190 -128l48 -124q4 -259 -110 -493l-22 -121
l-22 -36l8 -73q133 -135 14 -289q-184 -95 -365 59l-285 -121h-102l-227 73l-139 157l-25 70l-26 29l-18 73q5 233 197 358l81 40l95 4l14 14h128l15 -14q168 -30 314 -125l80 -14q105 114 106 270l-29 73l-161 66q-218 -59 -292 128q5 114 121 139l149 18l249 -18l14 -15v0
zM488 350l40 -22l102 11l70 58l-15 41l-157 47l-88 -58l48 -77v0z" />
    <glyph glyph-name="aring" unicode="&#xe5;" horiz-adv-x="1655" 
d="M1151 1890q135 27 197 -106l-7 -168l-30 -36l-62 -33l-102 3l-66 66l-22 62q-10 138 92 212v0zM1121 1744l8 -62l51 -40h44l44 33l10 25l-10 69l-44 30h-44l-26 -11l-33 -44v0zM1224 1360q156 1 248 -116l22 -70q12 -300 -121 -573q-65 -212 55 -395l-25 -98
q-114 -133 -249 -52q-116 189 -317 106q-139 -113 -311 -164q-249 -17 -358 208l-58 150l-4 66q-1 160 117 281l113 110l11 25l121 55l65 7l44 22q187 19 311 -106l62 -29l47 -51l95 -11l51 84l41 193l-30 30l-58 18l-175 -7q-102 37 -103 127q28 133 176 132q105 61 230 58
v0zM431 451v-51l18 -44l62 -37q128 20 212 121l15 62l-11 29l-55 40l-139 8l-40 -33l-62 -95v0z" />
    <glyph glyph-name="ae" unicode="&#xe6;" horiz-adv-x="2298" 
d="M1197 1353q140 6 237 -99l33 -73h18q157 169 391 117q138 -25 234 -128l73 -219q49 -206 -110 -329q-285 -98 -595 -47l-62 -26l-40 -69l40 -110l88 -76l175 -4l150 58h106l29 -22l29 -105l-44 -106q-117 -94 -266 -121l-168 18l-158 73q-125 -120 -252 -18l-47 62
l-80 55l-150 -18l-154 -99l-175 -73q-239 -19 -351 194l-65 164l-4 66l4 73q78 260 310 383q86 1 157 44q184 18 311 -106l62 -29l47 -51l95 -11l29 29q53 118 63 249l-22 25l-66 22l-164 -11q-112 35 -114 132q27 131 176 131q105 63 230 55v0zM1642 947l-3 -65l33 -26
l65 -7q141 -32 176 95l-44 47l-37 11l-149 -18l-41 -37v0zM408 447l14 -95l66 -37q121 22 205 114l18 69l-11 29l-51 37l-143 11l-40 -33l-58 -95v0z" />
    <glyph glyph-name="ccedilla" unicode="&#xe7;" horiz-adv-x="1585" 
d="M1088 1341q212 16 354 -150l33 -98l-7 -81l-70 -55q-122 -2 -190 106q-147 62 -303 -3q-48 -55 -117 -77l-157 -142l-172 -278l-22 -121q-78 -93 -18 -190q108 -105 248 -51l66 40q89 0 168 44l95 -3q71 -69 11 -154l-102 -84l-91 -29l-63 -48l-87 -25l-40 -33
q-7 -148 138 -238q57 -197 -69 -361q-109 -133 -278 -139q-176 -53 -281 73l-11 73q15 96 128 106l150 15l65 51l-3 33l-33 51l-168 7l-102 55q-71 150 73 252q89 98 -19 183l-54 54q-100 268 54 512l19 77q64 70 87 164l132 135l4 18q241 313 632 311v0z" />
    <glyph glyph-name="egrave" unicode="&#xe8;" horiz-adv-x="1391" 
d="M510 2156q170 3 212 -194l54 -51l26 -51l55 -44l62 -95l-18 -80l-62 -47l-103 7q-237 148 -281 420l11 98l44 37v0zM747 1309q273 49 420 -161l55 -186q49 -207 -110 -329q-283 -97 -591 -47l-55 -19l-36 -54l-11 -41l32 -80l92 -88l175 -3l150 58h106q114 -100 14 -237
q-117 -91 -266 -117l-168 18q-293 54 -391 314l-22 95q-43 289 142 501q58 185 234 252l121 91l109 33v0zM682 958l-4 -66l33 -25l69 -7l121 11l51 80l-44 51l-37 11l-138 -15l-51 -40v0z" />
    <glyph glyph-name="eacute" unicode="&#xe9;" horiz-adv-x="1347" 
d="M1298 2066l88 -73l-18 -106q-77 -100 -198 -139l-256 -190l-47 -15l-81 7l-43 92l3 44q102 183 304 256q71 90 182 124h66v0zM790 1254q261 -22 362 -270l22 -88q8 -192 -132 -296l-47 -26q-244 -49 -494 -62l-62 -51q-3 -118 106 -143q174 -34 333 44l106 -18
q76 -88 0 -176q-96 -125 -245 -157q-235 -36 -417 110q-170 114 -190 318v135l33 150l18 18q31 166 176 253q148 251 431 259v0zM666 958l-106 -99l18 -47l55 -15l172 7l98 59q26 107 -87 128h-41l-109 -33v0z" />
    <glyph glyph-name="ecircumflex" unicode="&#xea;" horiz-adv-x="1391" 
d="M958 2122q154 1 183 -165q107 -117 176 -259l-18 -88l-73 -51l-85 14l-142 143l-88 22q-171 -35 -307 -154q-106 -11 -143 96l18 91l62 47l22 37l103 55l22 29q118 57 201 161l69 22v0zM757 1310q265 44 421 -161l55 -190q49 -207 -110 -329q-154 -61 -322 -29
q-150 -48 -311 -26l-62 -84l48 -128l76 -62l176 -4l150 59h106q117 -103 11 -242q-117 -87 -263 -113l-169 18q-293 54 -391 315l-22 95q-44 289 143 501q58 182 234 252l121 95l109 33v0zM882 1010q-124 29 -191 -55l-3 -65l33 -22l69 -8l128 15l44 77l-44 47l-36 11v0z
" />
    <glyph glyph-name="edieresis" unicode="&#xeb;" horiz-adv-x="1391" 
d="M531 2138q108 8 179 -69l22 -74q18 -134 -84 -215l-88 -26q-137 0 -176 150q-16 123 70 208l77 26v0zM1314 2039q127 -9 146 -139q21 -129 -99 -201l-47 -18q-143 -15 -169 142q-21 137 103 202l66 14v0zM739 1308q273 49 421 -161l44 -172l15 -15q47 -207 -114 -329
l-80 -15l-15 -14q-290 59 -552 -37l-37 -55l-11 -40l33 -80l91 -88l176 -4l150 59h110q111 -104 7 -242q-117 -87 -263 -113l-213 33q-259 61 -347 300l-22 95q-44 289 143 501q58 183 234 252l135 103l95 22v0zM714 993l-37 -36l-4 -66l30 -22l69 -11l128 18l44 77l-44 48
l-36 10l-150 -18v0z" />
    <glyph glyph-name="igrave" unicode="&#xec;" horiz-adv-x="1004" 
d="M391 2136q193 15 285 -194l33 -58l33 -19l40 -65l37 -26l29 -81l-4 -73l-18 -36l-84 -30l-91 22q-145 91 -223 245q-95 65 -139 169l18 95l84 51v0zM727 1203l15 -69q-10 -116 -80 -205q-48 -93 -41 -197q-132 -290 -179 -604l-99 -106l-102 7l-40 37l-33 62v102
q71 120 73 264l59 113q0 108 58 201l62 289l55 110l99 62l95 -11l58 -55v0z" />
    <glyph glyph-name="iacute" unicode="&#xed;" horiz-adv-x="1004" 
d="M1170 1960l77 -69l-18 -106q-77 -100 -198 -139q-92 -98 -215 -150l-22 -29l-66 -26l-81 7l-44 92q8 129 136 194l55 25l51 51l69 30l59 62l120 62l77 -4v0zM556 1254q94 16 150 -62l18 -73q-10 -116 -80 -205q-48 -93 -41 -197q-17 -96 -73 -176q-74 -208 -106 -428
l-98 -106l-103 7l-40 37l-33 62v103q62 99 59 219q72 103 80 230q84 177 99 374q22 161 168 215v0z" />
    <glyph glyph-name="icircumflex" unicode="&#xee;" horiz-adv-x="1074" 
d="M876 1978l37 -18q90 -163 249 -263l29 -51l-15 -99l-80 -55l-117 15l-136 131q-126 118 -285 37q-126 -122 -296 -113l-59 76q-8 133 125 180l58 14l95 62l48 11q83 89 197 132l103 -4l47 -55v0zM745 1199l14 -69q-9 -117 -80 -205q-48 -93 -40 -197q-135 -290 -180 -604
l-98 -106l-103 7l-40 37l-33 62v102q62 100 59 220l73 157q0 108 58 201l48 245l69 154l99 62l102 -14l52 -52v0z" />
    <glyph glyph-name="idieresis" unicode="&#xef;" horiz-adv-x="1127" 
d="M644 2101q109 7 183 -69l18 -74q20 -147 -102 -226l-70 -15q-136 1 -175 150v77l54 120l92 37v0zM1427 2002q127 -9 146 -139t-99 -201l-47 -18q-143 -14 -169 142q-21 137 103 202l66 14v0zM776 1165l3 -59l15 -18l-37 -143l-22 -25q-46 -134 -58 -275l-37 -40l-22 -55
l-62 -62l-58 -139l-22 -22q-8 -185 -136 -314l-47 -15q-111 0 -143 99q-9 232 139 413q75 293 241 545l22 91l92 99l99 -29l33 -51v0z" />
    <glyph glyph-name="eth" unicode="&#xf0;" horiz-adv-x="1691" 
d="M806 1928q39 -103 125 -168l55 18l124 106l51 8l33 -26l7 -77l-120 -128l-22 -40v-36l175 -267l132 -41l88 -87q94 -204 95 -425q11 -217 -139 -365l-18 -44q-259 -304 -655 -344q-331 -26 -542 230l-58 110l-22 128l7 289q59 67 73 157l52 48l22 51l62 48l14 29l77 44
q89 118 238 157l121 22l-51 26q-34 109 65 182l19 95l-125 202v80l37 33l80 -15v0zM869 1420l-30 -48l-55 -32v-11l147 33l102 3l-66 95l-36 11l-62 -51v0zM865 1098q-286 -81 -417 -336l-29 -161l-15 -15q-30 -153 91 -238l132 -65h106l33 18q243 17 370 230q23 91 87 161
l19 136l-22 117q-128 197 -355 153v0z" />
    <glyph glyph-name="ntilde" unicode="&#xf1;" horiz-adv-x="2017" 
d="M1899 2113q27 -165 -93 -284q-134 -80 -291 -102l-118 17l-20 20q-126 19 -222 97l-110 -4l-20 -20l-154 -52l-68 -58h-113l-65 61l-16 37l36 125q221 238 542 202l129 -24q138 -114 299 -56l49 52l93 41l110 -20l32 -32v0zM536 1299q140 24 210 -89v-117l-64 -89
l-37 -129l4 -21l41 -16l154 25l15 15l210 49q96 71 215 90l49 44l93 20q93 87 218 117l49 37q136 15 206 -101l12 -82q0 -196 -142 -348l-129 -306v-171q121 -130 28 -262l-65 -37q-181 -16 -255 134l-19 89l-8 190q89 136 88 311l20 20l-3 32l-49 21l-166 -24l-97 -65
q-143 -12 -267 -89l-137 -29q-215 -17 -235 -201q-80 -113 -105 -251q-90 -102 -206 -45l-32 29l-25 76q-6 161 106 275q1 175 85 328q10 145 88 267q7 193 150 303v0z" />
    <glyph glyph-name="ograve" unicode="&#xf2;" horiz-adv-x="1708" 
d="M700 2163q199 16 292 -201l26 -51l33 -18l40 -66l40 -29l29 -77l-7 -73l-18 -36l-84 -26l-92 18q-147 94 -226 252q-93 60 -135 161l18 95l84 51v0zM1083 1356q110 -56 231 -59q115 -19 168 -120q9 -103 62 -190l29 -223q3 -231 -157 -409q-258 -303 -654 -343
q-331 -26 -541 230l-58 110l-22 127l7 289l37 47l36 110l55 51l18 44l63 47l14 30l77 43q89 119 237 157l271 59h127v0zM890 1093q-279 -80 -417 -332l-29 -161l-14 -18q-29 -160 106 -245l116 -55h106q69 40 150 37q213 71 274 274l66 98l18 132l-22 117q-127 197 -354 153
v0z" />
    <glyph glyph-name="oacute" unicode="&#xf3;" horiz-adv-x="1717" 
d="M1302 2154l88 -73l-22 -106q-78 -101 -201 -142q-91 -97 -212 -146l-33 -37l-54 -18l-84 11l-41 87q27 162 183 216l110 87h18q71 87 179 121h69v0zM1057 1347q110 -56 231 -59q115 -19 168 -120q9 -103 62 -190l29 -223q3 -231 -157 -409q-258 -303 -654 -343
q-331 -26 -541 230l-58 110l-22 127l7 289l37 47l36 110l55 51l18 44l63 47l14 30l77 43q89 119 237 157l271 59h127v0zM864 1084q-279 -80 -417 -332l-29 -161l-14 -18q-29 -160 106 -245l116 -55h106q69 40 150 37q213 71 274 274l66 98l18 132l-22 117q-127 197 -354 153
v0z" />
    <glyph glyph-name="ocircumflex" unicode="&#xf4;" horiz-adv-x="1699" 
d="M1262 2371l48 -54l36 -19q91 -163 249 -263l29 -51q17 -116 -95 -153q-154 -16 -237 135q-139 135 -315 44q-116 -121 -281 -110l-59 77q-7 133 125 179q88 17 153 77l48 11q82 88 197 131l102 -4v0zM1058 1345q137 -60 288 -73q137 -72 139 -230q75 -134 66 -289
q5 -215 -143 -365l-18 -44q-258 -303 -654 -343q-306 -22 -519 197l-18 51q-91 85 -84 219l7 289q62 66 77 157l51 51l18 44l63 48l14 29l77 44l51 62q202 144 457 153h128v0zM864 1082q-283 -77 -417 -332l-29 -161l-14 -15q-30 -150 87 -233l136 -70h105q69 40 150 37
q215 74 274 274l66 98l18 132l-22 117q-125 195 -354 153v0z" />
    <glyph glyph-name="otilde" unicode="&#xf5;" horiz-adv-x="1691" 
d="M1607 2182l26 -29q23 -140 -73 -245l-73 -44l-59 -7q-64 -45 -142 -52l-106 15l-18 18q-114 17 -201 88l-99 -4l-18 -18l-135 -44l-66 -55h-102l-77 88q20 168 172 212l91 62q191 50 380 0q124 -103 270 -51l44 47l84 37l102 -18v0zM1052 1349q138 -63 289 -77l98 -77
q106 -210 106 -442q24 -158 -76 -263l-19 -54l-51 -59v-18l-161 -164q-84 -29 -149 -92q-171 -80 -358 -102q-304 -23 -519 194l-22 54q-91 85 -84 220l7 288q62 66 77 157l51 51l18 44l63 48l14 29l77 44l44 58q79 21 139 81q150 58 310 65l18 15h128v0zM709 1027
q-49 -60 -121 -87q-171 -140 -190 -366q-33 -160 103 -244l116 -59h110l33 19q245 18 373 233q22 90 84 157l18 44l-7 73l10 15q7 140 -124 223l-95 47h-160l-150 -55v0z" />
    <glyph glyph-name="odieresis" unicode="&#xf6;" horiz-adv-x="1620" 
d="M521 2090q110 8 182 -69l18 -73q19 -135 -84 -216l-87 -26q-137 2 -176 150v77l55 120l92 37v0zM1302 1991q122 2 150 -138q16 -123 -91 -194l-59 -26q-142 -13 -168 143q-22 139 106 201l62 14v0zM970 1352l270 -113l81 -69q25 -75 84 -128q58 -130 69 -271
q-60 -343 -321 -588q-177 -164 -406 -157l-77 -18q-239 -1 -409 172l-44 58q-16 92 -76 164l-26 183q-25 190 84 340l26 77q64 46 91 120l179 157l77 18l22 22l95 33h281v0zM707 1038q-258 -83 -311 -369q-17 -194 128 -314l91 -26l172 11q269 93 373 351l22 110l-29 117
q-197 154 -446 120v0z" />
    <glyph glyph-name="divide" unicode="&#xf7;" horiz-adv-x="1999" 
d="M958 1810q114 23 183 -73l14 -33l-7 -168l-29 -37l-59 -32l-106 3l-58 59l-29 69q-8 134 91 212v0zM268 1258q123 8 241 -29q271 50 544 7q216 30 435 0l230 19l113 -51l33 -81q-10 -134 -153 -157q-125 25 -249 -7q-206 37 -413 0l-95 18q-258 14 -515 -22l-175 18
l-95 81l-11 40q-16 123 110 164v0zM1141 718l14 -33l-7 -168l-29 -37l-59 -29l-117 11l-47 47l-29 74l14 102l77 109l110 -11l73 -65v0z" />
    <glyph glyph-name="oslash" unicode="&#xf8;" horiz-adv-x="1708" 
d="M1244 1774q85 5 117 -77l-7 -120q-87 -128 -102 -278q261 -20 274 -299l18 -22l29 -223l-26 -183q-129 -314 -427 -467q-171 -87 -362 -102l-36 -59q-15 -123 -106 -208l-48 -22l-80 4l-51 65v103l58 135l-3 22q-238 72 -329 299l-22 128l7 289l37 47l36 110l55 51l18 44
l63 47l14 29l77 44q144 180 391 183l14 14l157 22q51 83 52 183q57 76 76 168l33 36l73 37v0zM857 1073q-256 -85 -384 -322l-29 -160l-14 -19q-29 -158 106 -244l76 -33l22 14q5 102 66 183l44 194l33 43q10 125 84 227l22 95l-4 22h-22v0zM1138 1025q-15 -101 -73 -182
q-14 -116 -80 -212q-29 -164 -102 -314l7 -8q180 45 274 216q19 89 84 157l18 131l-22 117l-87 92l-19 3v0z" />
    <glyph glyph-name="ugrave" unicode="&#xf9;" horiz-adv-x="1920" 
d="M1171 2507q201 2 246 -233l45 -37l45 -74l62 -50l32 -69l29 -25l-24 -89l-66 -54q-177 -23 -283 148q-125 145 -147 331l13 110l48 42v0zM533 1295q115 23 159 -78q37 -169 -89 -282q-14 -105 -82 -181l-54 -188l-65 -90l25 -98l32 -25q143 -21 246 86l77 29l79 61l57 21
l32 36q149 33 270 123l37 5q210 100 242 327l107 225q99 57 196 0l37 -57l-5 -127q-76 -114 -102 -249q-111 -110 -77 -275l114 -151q32 -182 -126 -238q-203 -3 -283 184l-103 32q-132 -31 -225 -130q-142 -51 -245 -160l-246 -82q-274 -38 -421 201l-42 143q3 209 144 377
q39 235 184 418l33 77l94 66v0z" />
    <glyph glyph-name="uacute" unicode="&#xfa;" horiz-adv-x="1814" 
d="M1694 2132l-20 -113l-82 -83q-157 -60 -274 -183l-67 -28l-63 -59l-50 -15l-87 8l-46 97l3 47l59 95l157 109l23 31l87 40q76 96 195 132h71l94 -78v0zM589 1322q110 -65 87 -192q-78 -99 -90 -224l-63 -105l-19 -101l-67 -95l-23 -168l50 -47q139 -13 239 83
q177 41 321 156q250 -24 337 208l54 192l24 31l28 140l47 56l105 3l66 -50l16 -48l-7 -117q-60 -118 -75 -251q-44 -157 -152 -273l-9 -95q130 -185 -19 -321l-86 -35h-106l-133 122l-28 93l-81 9q-150 -65 -279 -165q-142 -32 -253 -122l-99 5l-180 74l-31 51l-50 34
l-28 130q-11 293 152 537l56 148l31 32l62 192l90 116l113 -3v0z" />
    <glyph glyph-name="ucircumflex" unicode="&#xfb;" horiz-adv-x="1805" 
d="M1384 2265q56 -74 140 -112l16 -31l162 -148l12 -58l-4 -62l-31 -54l-109 -19q-141 135 -326 181l-93 -46q-113 -144 -299 -167q-80 -11 -127 55l-16 58l58 124q219 246 539 314l78 -35v0zM584 1311q114 -67 86 -194q-80 -121 -109 -264l-23 -23l-39 -140
q-106 -99 -89 -260l50 -46q148 -11 256 89q157 31 280 139q135 7 256 63q129 147 155 341l20 19l27 144l39 55l116 11l70 -51l16 -46l-9 -116l-15 -16l-66 -249l-23 -22q-29 -137 -124 -234l-8 -92l62 -176q-24 -147 -167 -178h-105l-132 121l-26 92l-82 9
q-214 -159 -466 -237l-65 -47l-98 4l-179 74l-30 51l-50 34l-28 128q-6 318 174 586l32 93l31 35q36 165 136 299l19 7l108 -3v0z" />
    <glyph glyph-name="udieresis" unicode="&#xfc;" horiz-adv-x="1823" 
d="M641 2262q124 7 207 -80l26 -85l-34 -186l-97 -82l-73 -12l-50 4l-26 26l-43 8l-84 136v89l21 21q10 144 153 161v0zM1548 2147q144 -9 170 -160q22 -124 -77 -204l-93 -51q-166 -18 -195 166q-25 158 119 233l76 16v0zM1552 1291q130 -7 169 -127l5 -72l-21 -140
l-72 -131l-110 -298l3 -105l115 -170q47 -156 -80 -242l-73 -8l-118 33l-191 226l-55 4l-21 16l-102 -33l-26 -30l-114 -51l-33 -38l-221 -97h-182q-290 88 -323 372q-9 309 128 595q76 81 97 195l80 67l132 5l68 -98l-22 -182q-78 -123 -93 -268q-134 -186 18 -296
q188 1 326 148l80 29q118 122 271 192l128 135q23 86 85 148l33 128l119 93v0z" />
    <glyph glyph-name="yacute" unicode="&#xfd;" horiz-adv-x="1928" 
d="M1724 2182l-18 -106l-77 -77q-146 -56 -255 -171l-55 -22l-66 -59l-47 -14q-115 -26 -125 98q21 162 187 219l47 48l73 33l51 55l132 69h66l87 -73v0zM1812 1309v-99q-122 -138 -153 -318l-22 -18q-16 -88 -81 -153q-18 -123 -98 -212l-33 -99l-48 -62q-19 -116 -98 -204
q-11 -74 -59 -132l-44 -168q-128 -132 -164 -321q-35 -80 -106 -128q-73 -147 -234 -216l-127 -29q-192 -38 -329 84q-106 25 -128 132l11 95l55 32h95q229 -151 427 33l77 88l179 373v131l-33 40q-13 131 -88 234l-22 99q-64 84 -76 190l-59 87q-20 143 -80 274
q-81 158 25 260q44 9 88 7l29 -22q135 -189 165 -424q22 -65 76 -109q21 -151 124 -260q143 -11 183 161q39 181 168 321l29 103q66 68 84 164l59 81l62 36h66l80 -51v0z" />
    <glyph glyph-name="thorn" unicode="&#xfe;" horiz-adv-x="1849" 
d="M1113 1951q73 -72 44 -172q-77 -120 -95 -259q-72 -136 -85 -289q112 51 234 51l19 15h168l14 -15l40 -3q309 -167 311 -504q28 -338 -248 -534q-67 -132 -212 -153l-95 -55l-198 -26l-14 -14h-117l-15 14l-73 4l-106 55l-102 -15q-98 -137 -106 -310l-37 -81
q13 -103 -58 -171l-29 -77l-106 -95l-99 18l-51 84l7 88q96 176 114 376q68 90 80 201q73 113 80 249q70 137 99 288l40 51q33 148 113 278q43 108 30 226l36 51q4 194 117 347q-6 255 197 395l103 -18v0zM1193 979q-268 -24 -395 -252l-76 -259v-88q59 -83 161 -102h69
l88 33l109 3l18 19l59 14l29 44q181 102 212 303q8 193 -146 281l-128 4v0z" />
    <glyph glyph-name="ydieresis" unicode="&#xff;" horiz-adv-x="1928" 
d="M864 2125q107 6 179 -69l19 -73q22 -150 -103 -227l-69 -15q-137 3 -175 150v77l54 120l95 37v0zM1646 2026q124 -9 146 -138q14 -164 -146 -220h-62l-70 44l-36 99q-23 136 102 201l66 14v0zM1803 1307v-99q-123 -139 -153 -318l-30 -33l-43 -109l-30 -29
q-20 -123 -98 -216q-17 -93 -81 -161q-23 -115 -98 -204q-12 -74 -59 -132l-44 -168q-128 -132 -164 -321q-35 -80 -106 -128q-73 -147 -234 -216l-127 -29q-192 -38 -329 84q-106 25 -128 132l11 95l55 32h95q229 -143 427 33l77 88q41 126 120 234l19 76l40 63v135l-37 47
q-11 125 -84 223q-7 111 -77 197l-21 95l-59 88q-20 143 -80 274l-26 175q14 51 51 84q44 9 88 8l29 -22q132 -191 165 -424l76 -113q22 -143 114 -252q140 -28 182 135q53 189 179 343l33 110l29 29l40 110l81 106l51 25h66l80 -47v0z" />
    <glyph glyph-name="OE" unicode="&#x152;" horiz-adv-x="3547" 
d="M1957 2267l192 -211l53 -148l16 10l16 52l34 43q7 144 128 191h102l66 -6l16 -14q110 -13 218 0l13 14h122l33 -14l17 14l290 16q124 3 135 -112l-16 -79l-46 -40q-110 3 -212 -36q-78 14 -151 -17q-269 98 -485 -36q-61 -87 -85 -191q-77 -75 -77 -185l-29 -56l10 -89
l33 -20l148 -6l17 -14h125l16 14q126 17 255 0l62 -60l20 -79q-57 -140 -224 -118l-17 -14h-79l-13 14q-120 11 -241 6l-13 10q-137 26 -234 -66q-103 -166 -129 -362l-43 -86q2 -84 -39 -159l3 -52l23 -37q195 -74 396 -13q179 -50 369 0q102 -49 83 -158q-32 -96 -135 -92
q-260 29 -508 -36l-442 -8q-161 32 -135 185l12 14l4 66l-66 -64q-124 -41 -228 -121q-123 -73 -263 -90l-93 -36q-75 29 -154 20q-290 68 -476 293l-52 37q-95 121 -115 273l-30 56l-24 175q-24 439 241 808q56 58 79 136q83 82 136 184q93 63 158 152q67 63 155 89l63 53
q117 18 217 83q166 53 343 55l168 -6l267 -132v0zM1265 2115q-71 -58 -162 -76q-108 -43 -185 -129l-26 -6q-167 -121 -248 -303l-56 -66l-16 -53q-83 -76 -92 -191l-69 -152q6 -112 -26 -218q-14 -184 65 -353q91 -132 221 -224q127 -66 267 -82l116 6q104 56 224 70
q92 84 208 125l85 72q58 105 155 179q19 75 73 129q24 96 95 167q64 149 70 311l33 79v217l-13 14l-23 161l-14 13q16 122 -75 192l-20 42q-165 146 -390 102l-197 -26v0z" />
    <glyph glyph-name="oe" unicode="&#x153;" horiz-adv-x="2519" 
d="M676 1348q224 65 395 -55q196 -36 278 -210l160 131l120 76l83 7l14 14q244 84 471 -36q162 -75 188 -250q48 -214 -109 -350l-97 -37q-201 10 -395 -48h-152q-107 10 -141 -79q-11 -115 94 -170q90 -53 195 -58q121 94 268 77l61 -51q22 -182 -151 -258
q-112 -53 -239 -50q-278 -10 -445 214l-44 79q-162 -203 -416 -260q-82 9 -159 -18q-271 3 -441 217q-25 96 -84 177l-25 177q-25 188 83 337l26 76q63 46 90 120l177 155l77 18l20 22l98 33v0zM1763 1022l-40 -51l-41 -26l8 -21l51 -10l256 6l37 15l25 69l-25 28l-177 22
l-94 -32v0zM633 1022l-167 -145l-83 -206l4 -94l22 -33q4 -123 101 -184l90 -22l171 7q259 89 365 337l29 119l-33 115q-195 154 -441 120l-58 -14v0z" />
    <glyph glyph-name="Scaron" unicode="&#x160;" 
d="M1367 2933l104 -70h64l13 13l104 20q107 111 257 101l55 -71l-4 -67l-60 -70q-108 -25 -188 -98l-30 -2q-87 -86 -198 -131l-93 3l-44 53l-37 21q-78 149 -222 231l-33 54l7 77l84 60l104 -14l117 -110v0zM1488 2387l147 -20q213 -98 315 -305l3 -61q30 -105 -56 -147
l-54 -10q-142 76 -211 221q-135 110 -302 74q-235 -97 -319 -338q-52 -152 41 -259q8 -91 74 -147q90 -142 97 -305q140 -361 -10 -723q-63 -75 -91 -168q-101 -170 -301 -188q-358 -49 -617 188q-20 74 -77 127l-30 87v27l34 74l63 27h44l87 -64q91 -171 281 -211
q152 -43 282 57q142 157 157 372l-10 174l-40 244q-59 64 -73 148q-79 89 -98 208l-30 40l-24 130l-13 17l-3 114q47 81 47 178q34 107 121 174l30 53q126 154 311 205l108 7l12 13h88l17 -13v0z" />
    <glyph glyph-name="scaron" unicode="&#x161;" horiz-adv-x="1453" 
d="M888 1857q127 -122 283 -32q110 113 266 103l55 -71l-3 -70l-62 -72q-112 -25 -194 -100l-31 -4q-88 -86 -203 -134l-100 7l-41 51l-38 21q-80 150 -225 238l-34 55l7 79l83 62l110 -14l127 -119v0zM1148 1280l155 -141l24 -48v-66l-46 -55q-127 -21 -213 80l-83 33
l-175 -3l-21 -20q-88 -13 -107 -107l11 -77q63 -124 179 -207q148 -140 117 -327q-89 -230 -311 -321l-52 -7h-51q-104 52 -220 59q-218 99 -280 331q-18 99 65 132h83q81 -59 127 -150l115 -58l124 -21l96 42l24 55l-24 79l-189 183l-79 131l-11 225q111 229 351 327l46 14
h159l186 -83v0z" />
    <glyph glyph-name="Ydieresis" unicode="&#x178;" horiz-adv-x="2034" 
d="M707 2806q95 7 157 -65l11 -54q16 -114 -70 -182l-74 -21q-114 0 -150 126v64l16 15q6 104 110 117v0zM1363 2723q102 1 126 -116q13 -109 -87 -169l-39 -16q-119 -11 -141 120q-19 117 89 169l52 12v0zM1679 2416q75 17 107 -46l-28 -85q-161 -139 -267 -323
q-99 -78 -137 -198l-15 -10q-45 -120 -135 -205l-52 -89l-25 -19l-18 -43l-123 -125l-18 -46l-50 -55l-15 -52l-119 -160q-10 -87 -65 -157l-22 -122q-54 -64 -63 -147l-50 -76q-5 -138 -70 -258l-15 -80l-86 -89l-71 -27l-70 24l-31 49l6 123q69 134 86 285
q183 304 199 659q82 132 -22 267q-6 120 -70 221l-12 144l-46 92l-86 279l3 89l37 43h74l76 -37l28 -52l33 -31q20 -113 83 -208l19 -111l15 -15l22 -89l11 -13l19 -119l74 -138l27 -18l80 49q31 88 110 144q80 89 123 199l40 40q26 70 80 123l89 156q77 50 116 138
q87 117 224 119v0z" />
    <glyph glyph-name="circumflex" unicode="&#x2c6;" horiz-adv-x="1294" 
d="M772 2318l55 -33q81 -165 245 -256l29 -51q18 -117 -95 -150l-117 15l-135 128q-127 118 -285 36q-127 -119 -297 -113l-58 77q-9 125 113 175q92 13 161 77l40 8q89 93 209 135l102 -4l33 -44v0z" />
    <glyph glyph-name="tilde" unicode="&#x2dc;" horiz-adv-x="1453" 
d="M1286 2302q27 -155 -91 -263l-256 -81q-178 16 -326 117q-184 10 -314 -117h-103l-47 40l-26 44l33 114q201 211 490 179l117 -22q133 -110 282 -40l29 36l84 37l102 -18l26 -26v0z" />
    <glyph glyph-name="mu" unicode="&#xb5;" horiz-adv-x="2422" 
d="M2132 1376q138 -1 184 -133l5 -83l-23 -150l-78 -138q-261 -356 23 -660q16 -142 -101 -224h-146q-166 104 -266 274l-78 19l-92 -24l-274 -173q-252 -150 -505 -14l-46 -64q-23 -173 -114 -317q-67 -138 -69 -289q-45 -202 -228 -274l-125 19l-64 72l-13 92
q48 194 160 362l42 211q84 111 105 247q85 145 100 313q65 115 60 247l18 19q13 229 147 407q19 163 164 239h111l82 -111q2 -223 -114 -416q-9 -133 -74 -252l19 -79l55 -54q188 -20 320 128q183 66 316 210q216 81 285 299l50 64l36 137l128 96v0z" />
    <glyph glyph-name="mu" unicode="&#x3bc;" horiz-adv-x="2422" 
d="M2132 1376q138 -1 184 -133l5 -83l-23 -150l-78 -138q-261 -356 23 -660q16 -142 -101 -224h-146q-166 104 -266 274l-78 19l-92 -24l-274 -173q-252 -150 -505 -14l-46 -64q-23 -173 -114 -317q-67 -138 -69 -289q-45 -202 -228 -274l-125 19l-64 72l-13 92
q48 194 160 362l42 211q84 111 105 247q85 145 100 313q65 115 60 247l18 19q13 229 147 407q19 163 164 239h111l82 -111q2 -223 -114 -416q-9 -133 -74 -252l19 -79l55 -54q188 -20 320 128q183 66 316 210q216 81 285 299l50 64l36 137l128 96v0z" />
    <glyph glyph-name="endash" unicode="&#x2013;" horiz-adv-x="1818" 
d="M633 783q101 13 194 -22q307 37 614 0l231 18l113 -51l33 -77q-12 -131 -154 -154q-124 26 -248 -7q-139 40 -275 0q-124 26 -248 -7q-307 42 -611 -4l-176 18l-95 77l-11 41q-15 124 110 161q198 -64 387 -8h110l26 15v0z" />
    <glyph glyph-name="emdash" unicode="&#x2014;" horiz-adv-x="2316" 
d="M1628 778q287 -37 574 0l113 -48l33 -80q-12 -131 -154 -153q-124 25 -248 -8q-139 40 -275 0q-124 26 -248 -7q-152 41 -300 0q-114 25 -227 -7q-317 42 -632 -4l-176 18l-95 77l-11 40q-15 125 110 161l267 -26l230 19l26 14q233 -53 464 -3q274 -40 549 7v0z" />
    <glyph glyph-name="quoteleft" unicode="&#x2018;" horiz-adv-x="775" 
d="M544 2371q70 4 102 -66q17 -192 -102 -336l-41 -92q-83 -74 -131 -175l-44 -40l-55 -15q-93 -6 -132 84l18 121l33 29l8 29q82 77 106 183l55 84q15 130 131 187l52 7v0z" />
    <glyph glyph-name="quoteright" unicode="&#x2019;" horiz-adv-x="766" 
d="M526 2365q70 4 102 -66q17 -192 -102 -336l-41 -92q-83 -74 -131 -175l-44 -40l-55 -15q-93 -6 -132 84l18 121l33 29l8 29q82 77 106 183l55 84q15 130 131 187l52 7v0z" />
    <glyph glyph-name="quotesinglbase" unicode="&#x201a;" horiz-adv-x="880" 
d="M463 169q148 14 194 -124q5 -285 -197 -494l-121 -70l-84 4l-88 73l15 102q85 49 131 139l8 257l87 98l55 15v0z" />
    <glyph glyph-name="quotedblleft" unicode="&#x201c;" horiz-adv-x="1215" 
d="M607 2294q25 -123 -62 -209l-11 -44l-62 -62q-45 -203 -223 -307l-92 4l-40 33l-11 29q-16 132 91 216l191 340l87 80l99 -29l33 -51v0zM1108 2213q5 -132 -95 -216l-7 -29l-41 -33q-66 -173 -223 -263h-102l-44 37l-11 29q-10 197 154 325q57 176 223 256l87 -22l59 -84
v0z" />
    <glyph glyph-name="quotedblright" unicode="&#x201d;" horiz-adv-x="1250" 
d="M607 2286q25 -123 -62 -209l-11 -44l-62 -62q-45 -203 -223 -307l-92 4l-40 33l-11 29q-16 132 91 216l191 340l87 80l99 -29l33 -51v0zM1108 2205q5 -132 -95 -216l-7 -29l-41 -33q-66 -173 -223 -263h-102l-44 37l-11 29q-10 197 154 325q57 176 223 256l87 -22l59 -84
v0z" />
    <glyph glyph-name="quotedblbase" unicode="&#x201e;" horiz-adv-x="1567" 
d="M580 136l73 -26l66 -98q6 -290 -205 -498l-113 -65l-84 3l-88 77l15 99q80 55 131 139l8 256l91 102l51 11h55v0zM1118 121q151 15 194 -128q4 -283 -198 -490l-120 -69l-84 4l-88 73l14 102q85 50 132 139l7 256l85 95l58 18v0z" />
    <glyph glyph-name="dagger" unicode="&#x2020;" horiz-adv-x="1603" 
d="M1121 2406l61 -52l3 -98q-59 -113 -78 -239l-55 -86l-13 -54q150 -20 300 13l106 -51l31 -75q-11 -124 -144 -147q-116 31 -231 -6q-83 28 -168 19l-27 -19l-65 -209l-18 -20q-10 -92 -71 -164l-24 -105l-17 -18q-16 -124 -85 -225l-48 -171l-17 -17l-55 -184l-31 -41
q-19 -134 -102 -239l-34 -109l-65 -85l-44 -21l-76 4l-47 61q-15 184 116 328l17 64l38 58q10 119 74 216l41 180l31 41q13 109 76 198l30 133q56 67 69 154q77 82 68 184l-154 -17l-151 21l-88 74q-45 139 92 191q203 -48 406 -10l31 31q16 94 75 171q9 102 72 184
q13 113 123 143l48 -6v0z" />
    <glyph glyph-name="daggerdbl" unicode="&#x2021;" horiz-adv-x="1796" 
d="M1324 2401l61 -51l4 -99q-60 -112 -79 -237q-66 -84 -91 -187q157 -25 316 6l105 -47l30 -75q-9 -125 -143 -146q-106 25 -213 -6q-110 28 -221 10l-48 -167l-16 -20q-12 -92 -72 -163l-23 -105q-80 -121 -106 -266q170 -23 340 8l115 -59q62 -111 -51 -187l-71 -23
q-116 23 -231 -7l-166 17l-31 -13q-37 -199 -153 -361q-10 -153 -146 -213q-88 -20 -122 64q-15 164 98 289q18 89 75 159l13 62q-75 18 -152 -7l-139 13l-99 79l-10 37q-16 115 102 152q115 8 224 -27l166 27l11 58q57 62 54 149l51 89l24 122q61 72 75 164l50 88l4 33
l-146 -6l-150 17l-88 75l-14 92l45 67l61 31q198 -44 397 -7q109 158 139 343q55 75 75 166l31 34l68 34l47 -6v0z" />
    <glyph glyph-name="bullet" unicode="&#x2022;" horiz-adv-x="1004" 
d="M450 1480q189 11 317 -123l32 -129q33 -227 -136 -367l-167 -45l-180 51l-124 206q-30 215 124 362l134 45v0z" />
    <glyph glyph-name="ellipsis" unicode="&#x2026;" horiz-adv-x="3153" 
d="M296 265l48 -62l25 -77l-7 -29l-80 -84h-88l-70 54l-18 33q-16 117 99 172l91 -7v0zM1551 246q128 5 142 -106l-7 -120l-40 -33q-159 -31 -205 113q-15 135 110 146v0zM2926 228l51 -40l18 -51l-26 -113l-25 -19q-130 -28 -183 99l22 80l62 44h81v0z" />
    <glyph glyph-name="perthousand" unicode="&#x2030;" horiz-adv-x="2977" 
d="M479 2027q166 -1 242 -146l14 -77q-7 -268 -230 -432q-94 -79 -216 -102q-116 -13 -175 91l-26 106q-23 163 77 293l175 190l139 77v0zM487 1884q-180 -87 -253 -278l-14 -76l14 -103l33 -29l88 18q187 114 245 322l-22 106l-37 29l-54 11v0zM1869 1990l29 -32l-4 -99
q-111 -233 -310 -392q-59 -123 -165 -212q-38 -98 -124 -157q-70 -140 -194 -234q-56 -117 -157 -198q-55 -126 -158 -215q-52 -144 -175 -235l-66 -106l-150 -113l-99 11l-54 80q-6 161 135 256l62 103l59 44q58 143 179 234q51 108 146 183l33 58q131 86 201 223
q104 80 165 198q83 66 124 165l113 135q51 203 238 307l58 18l114 -22v0zM2600 904q164 -3 241 -150l15 -77q5 -180 -113 -311q-127 -173 -333 -223q-119 -14 -176 95l-25 103v124q95 307 391 439v0zM2607 758q-179 -82 -252 -275l-15 -76l15 -106l33 -30q127 3 208 121
l63 70l62 153l-22 103l-37 29l-55 11v0zM1788 864q164 -3 242 -150l14 -77q-4 -258 -219 -421q-95 -87 -223 -113q-122 -15 -179 95l-26 103v124q96 307 391 439v0zM1796 718q-180 -82 -253 -275l-14 -77l14 -106l33 -29q128 1 209 121l62 69l62 154l-22 102l-44 33l-47 8v0
z" />
    <glyph glyph-name="guilsinglleft" unicode="&#x2039;" horiz-adv-x="1197" 
d="M897 1463q55 8 84 -36l-5 -58q-48 -111 -144 -180l-18 -28l-38 -29q-24 -57 -75 -92l-9 -35q-80 -56 -126 -142l-30 -20q-40 -82 -108 -138q-36 -83 -109 -136l-34 -53l65 -42l38 -49l82 -54l15 -28l23 -12l48 -58l41 -21l26 -36q75 -46 132 -113q81 -39 135 -109l53 -18
l69 -47q17 -47 56 -80l13 -47l-16 -61l-22 -16l-64 6l-16 18l-82 44l-20 30q-67 35 -109 102q-73 42 -127 107q-64 20 -86 75q-83 43 -136 120l-240 171l-31 47l-22 13l-18 38q-8 92 76 145l40 62l44 30q41 89 120 145l34 54q51 33 77 88l32 16q35 59 88 102l42 65l18 11
q16 39 51 64l16 47l44 69q50 16 83 58l40 11v0z" />
    <glyph glyph-name="guilsinglright" unicode="&#x203a;" horiz-adv-x="1268" 
d="M162 1482q125 1 189 -103q68 -36 110 -103q75 -43 130 -109q71 -35 117 -101q70 -33 112 -100l248 -178l30 -44l23 -15l18 -39q9 -92 -76 -144l-43 -68l-45 -32q-43 -92 -124 -148q-24 -59 -77 -92l-37 -55l-29 -13q-81 -78 -137 -174l-21 -14q-15 -39 -50 -64l-16 -48
l-46 -71l-43 -20l-34 -34l-48 -16q-57 -9 -87 36l7 66l18 19q57 136 185 219q29 60 82 101l5 29q81 56 128 144q69 48 102 128q67 49 98 127q60 39 89 103q-72 34 -114 101l-70 46l-19 29l-57 46l-18 30l-41 20l-28 37q-76 46 -134 116q-84 40 -139 112l-55 18l-69 45
q-18 53 -61 90l-12 43l17 64l22 16v0z" />
    <glyph glyph-name="trademark" unicode="&#x2122;" horiz-adv-x="2254" 
d="M453 2345q158 -21 311 18l33 -15l18 -29l-7 -55l-44 -32l-201 -4l-37 -11l-33 -37q-121 -222 -153 -467q-79 -151 -99 -321l-18 -33l-44 -33l-58 15l-11 84q86 145 95 321q111 214 150 453l-30 25l-244 19l-37 40l15 54l80 26l314 -18v0zM2119 2272l-4 -55l-36 -55
q-32 -199 -124 -376l-103 -391l-14 -22l-30 -7h-29l-36 26l-4 76l135 402l26 113l-7 22l-33 -7q-124 -149 -285 -256q-73 -57 -114 -138l-51 -19q-92 33 -76 146q-68 114 -73 245l-26 55l-18 7q-168 -251 -205 -559l-40 -87l-26 -22h-29l-47 47v70l25 33q93 212 143 438
q82 136 102 295l29 33l62 11l70 -69q80 -179 113 -373l29 -36l26 -4q192 136 354 307q97 56 164 146l59 37h47l26 -33v0z" />
    <glyph glyph-name="periodcentered" unicode="&#xb7;" horiz-adv-x="968" 
d="M379 1295q113 24 178 -73l15 -33q57 -184 -95 -234l-113 11l-47 47l-26 74l15 102l73 106v0z" />
    <glyph glyph-name="periodcentered" unicode="&#x2219;" horiz-adv-x="968" 
d="M379 1295q113 24 178 -73l15 -33q57 -184 -95 -234l-113 11l-47 47l-26 74l15 102l73 106v0z" />
    <glyph glyph-name="nonbreakingspace" unicode="&#xa0;" horiz-adv-x="1541" 
 />
    <glyph glyph-name="u20AC" unicode="&#x20ac;" horiz-adv-x="2141" 
d="M1534 2408l176 -54l141 -80q64 -140 178 -237l29 -57q15 -92 -57 -148l-84 -3l-85 58q-58 239 -301 246q-286 20 -483 -214l-121 -131l-26 -61q236 -29 470 4q64 -13 112 -58q49 -89 -29 -154l-90 -41q-108 29 -217 -6l-83 19q-124 -20 -249 0l-71 -7q-121 -90 -140 -240
l-32 -44l6 -13q206 25 413 -7l198 17q126 -16 131 -131q-24 -104 -138 -122q-108 29 -217 -6l-84 19q-124 -20 -248 0l-125 -16q-56 -182 -6 -364q49 -69 60 -154q103 -165 301 -115q85 34 176 35q100 53 211 71q67 54 149 25l42 -61l-25 -80l-109 -89q-120 -32 -214 -118
l-156 -52l-27 -25l-124 -10l-112 10l-112 41l-51 55l-51 25l-103 93l-15 61l-55 73q-50 180 -48 368l-16 80q41 73 35 153l-63 58l-10 35q-15 109 96 144l41 3l35 124l45 48l19 58l36 45l-80 77q-44 133 86 178l144 -2l115 184q60 111 166 170l35 48q86 36 151 105l25 7
l20 26q119 74 261 89l112 48h42v0z" />
  </font>
</defs>
</svg>
